<svg xmlns="http://www.w3.org/2000/svg" width="800" height="460" viewBox="0 0 800 460">
<rect width="800" height="460" fill="#b8d4e8"/>
<rect x="60" y="38" width="680" height="370" rx="24" fill="#e8d9a3" opacity="0.80"/>
<text x="400" y="26" text-anchor="middle" font-size="17" font-weight="700" fill="#0f172a" font-family="Pretendard,'Noto Sans KR',sans-serif">튀니지 위치 — 북아프리카</text>
<text x="400" y="68" text-anchor="middle" font-size="13" font-weight="600" fill="#1e3a5f" font-family="Pretendard,'Noto Sans KR',sans-serif">▲ 지중해</text>
<text x="755" y="210" text-anchor="end" font-size="13" font-weight="600" fill="#1e3a5f" font-family="Pretendard,'Noto Sans KR',sans-serif">리비아</text>
<text x="400" y="415" text-anchor="middle" font-size="13" font-weight="600" fill="#1e3a5f" font-family="Pretendard,'Noto Sans KR',sans-serif">▼ 리비아 · 알제리</text>
<text x="55" y="210" text-anchor="start" font-size="13" font-weight="600" fill="#1e3a5f" font-family="Pretendard,'Noto Sans KR',sans-serif">알제리</text>
<g transform="translate(313.40,74.94) scale(0.3134)">
  <path d="M483.6,584.4 L479.5,652.3 L488.2,666.9 L488.6,673.4 L485.4,680.9 L414.0,723.9 L377.1,767.6 L358.9,771.7 L355.6,774.2 L338.7,802.1 L354.4,867.7 L354.3,877.2 L350.1,887.5 L315.6,937.4 L274.8,957.3 L224.2,725.7 L149.2,665.9 L126.7,601.3 L87.0,573.9 L64.1,502.6 L64.0,484.5 L66.2,471.5 L143.3,390.6 L159.3,331.7 L145.2,256.5 L156.4,185.5 L142.3,166.3 L182.5,127.2 L182.2,120.9 L180.1,114.2 L291.7,64.0 L298.8,65.3 L306.7,67.9 L306.0,89.7 L310.5,74.8 L342.6,80.7 L342.0,102.3 L356.7,123.3 L352.7,133.9 L364.8,140.0 L375.3,132.5 L380.6,121.3 L428.7,96.5 L431.2,109.7 L436.4,121.3 L404.0,169.6 L388.4,179.0 L376.7,191.2 L373.0,199.9 L371.9,209.9 L375.1,227.8 L383.9,245.9 L426.5,277.3 L439.1,326.5 L395.9,397.7 L337.0,448.3 L330.0,476.4 L341.6,502.3 L357.0,517.5 L372.6,525.6 L399.6,522.0 L398.8,532.0 L400.9,543.9 L411.9,543.2 L419.3,541.2 L425.3,529.5 L457.3,568.9 L451.7,576.5 L483.6,584.4 Z M456.4,387.4 L440.6,396.7 L443.5,388.7 L453.8,379.0 L456.6,381.3 L456.4,387.4 Z M425.1,517.5 L400.5,515.7 L401.5,501.0 L402.7,496.8 L421.1,496.1 L431.2,504.7 L425.1,517.5 Z" fill="#e84040" fill-opacity="0.92" stroke="#9b1c1c" stroke-width="3.83" vector-effect="non-scaling-stroke"/>
</g>
<text x="400" y="239" text-anchor="middle" font-size="15" font-weight="700" fill="#fff" font-family="Pretendard,'Noto Sans KR',sans-serif">튀니지</text>
<text x="400" y="452" text-anchor="middle" font-size="11" font-weight="400" fill="#475569" font-family="Pretendard,'Noto Sans KR',sans-serif">북아프리카 — 지중해를 사이에 두고 이탈리아와 마주보는 아프리카 북단</text>
</svg>