<svg xmlns="http://www.w3.org/2000/svg" width="940" height="881" viewBox="0 0 940 881" font-family="Pretendard, sans-serif">
<rect width="940" height="881" fill="#dbeafe"/>
<text x="470" y="34" text-anchor="middle" font-size="21" font-weight="700" fill="#1e293b">한국이 가나 옆에 가면 (실제 크기 비교)</text>
<g>
<path d="M404.3,69.5 L411.1,76.0 L412.6,79.8 L402.5,117.6 L452.6,158.8 L446.7,224.4 L440.4,229.1 L441.3,231.7 L448.8,233.5 L437.1,248.8 L455.5,245.7 L460.1,246.9 L468.5,255.7 L464.7,315.1 L460.9,319.2 L452.3,325.2 L486.2,369.0 L475.2,391.7 L477.7,437.0 L466.5,456.8 L466.4,462.4 L467.6,468.9 L481.1,477.7 L469.5,532.3 L492.4,575.5 L519.3,589.7 L541.2,614.7 L515.7,645.1 L441.1,651.2 L326.9,709.0 L298.1,713.7 L250.8,729.4 L196.6,759.2 L76.4,723.4 L108.7,716.6 L115.3,686.3 L111.2,668.1 L89.1,655.9 L65.1,576.5 L64.0,536.8 L91.1,493.7 L112.6,414.9 L143.2,384.9 L133.3,320.6 L117.7,294.0 L125.6,268.3 L114.5,217.9 L116.2,164.5 L113.7,143.4 L100.6,125.9 L109.9,81.9 L300.5,81.1 L344.8,90.0 L379.7,64.0 L404.3,69.5 Z" fill="#93c5fd" stroke="#ffffff" stroke-width="0.8"/>
<text x="323" y="377" text-anchor="middle" font-size="12" font-weight="700" fill="#475569">가나</text>
</g>
<path d="M620.3,209.8 L623.3,195.2 L659.9,155.7 L740.7,153.2 L751.8,147.7 L769.1,118.9 L790.3,167.3 L853.0,264.4 L860.6,287.7 L866.0,322.1 L861.1,397.0 L876.0,397.0 L863.5,457.2 L845.9,491.8 L833.8,498.4 L783.5,501.3 L775.4,510.6 L777.8,526.3 L746.6,519.6 L741.4,510.0 L712.8,517.4 L706.1,524.4 L712.9,542.7 L705.4,546.1 L695.8,529.8 L685.1,531.6 L691.7,553.1 L677.8,570.6 L664.4,561.6 L671.1,538.9 L639.6,573.0 L626.9,565.0 L606.6,586.2 L602.4,566.6 L583.3,546.9 L606.5,544.5 L602.0,538.1 L612.8,530.9 L597.5,530.8 L586.5,494.7 L604.8,457.3 L615.7,449.8 L604.7,441.4 L625.0,428.5 L628.3,417.3 L619.1,411.7 L623.2,401.8 L610.0,385.1 L606.1,327.8 L579.4,327.6 L577.8,318.9 L606.5,293.7 L632.3,300.5 L639.7,314.0 L648.9,301.6 L639.6,297.6 L629.2,273.8 L633.2,262.8 L621.3,246.2 L614.1,216.9 L619.1,212.7 L620.3,209.8 Z M804.3,533.9 L795.9,540.7 L781.8,526.9 L802.4,510.6 L804.3,533.9 Z M744.1,533.5 L743.1,544.1 L736.8,544.7 L723.8,532.7 L730.7,521.0 L741.6,525.6 L744.1,533.5 Z M580.0,579.7 L568.9,576.5 L581.6,558.8 L593.3,566.1 L589.2,573.8 L580.0,579.7 Z M610.5,214.6 L609.9,228.9 L600.6,224.0 L597.6,210.6 L608.2,209.6 L610.5,214.6 Z M599.7,349.6 L598.4,356.6 L592.7,351.8 L591.3,336.4 L597.1,341.0 L599.7,349.6 Z M575.1,540.5 L560.7,525.4 L567.1,520.4 L575.0,529.8 L575.1,540.5 Z M586.6,704.3 L577.7,704.0 L575.3,688.5 L626.3,669.0 L639.0,673.3 L639.3,687.7 L609.8,703.0 L586.6,704.3 Z" fill="#ef4444" fill-opacity="0.95" stroke="#9a3412" stroke-width="1.1"/>
<circle cx="392.6" cy="672.7" r="3.6" fill="#fde047" stroke="#1e293b" stroke-width="1.2"/>
<text x="398.6" y="676.7" font-size="11" font-weight="700" fill="#1e293b">★아크라</text>
<text x="470" y="861" text-anchor="middle" font-size="16" font-weight="600" fill="#334155">빨강이 한국 — 가나는 한국의 약 2.4배</text>
</svg>
