<svg xmlns="http://www.w3.org/2000/svg" width="940" height="656" viewBox="0 0 940 656" font-family="Pretendard, sans-serif">
<rect width="940" height="656" fill="#dbeafe"/>
<text x="470" y="34" text-anchor="middle" font-size="21" font-weight="700" fill="#1e293b">한국이 멕시코 옆에 가면 (실제 크기 비교)</text>
<g>
<path d="M103.1,64.0 L155.2,64.7 L153.4,68.4 L152.2,69.7 L231.9,106.6 L293.9,109.8 L294.5,98.2 L333.0,99.9 L339.4,108.2 L366.0,131.1 L367.7,134.6 L371.0,142.7 L371.0,146.4 L372.2,149.9 L374.8,154.5 L377.1,157.2 L402.6,172.1 L410.8,166.6 L414.4,155.6 L417.0,152.8 L424.7,149.8 L443.3,152.1 L458.8,167.2 L468.6,184.5 L469.5,189.0 L487.9,208.7 L489.3,221.3 L494.7,228.7 L497.7,236.7 L517.1,244.8 L521.6,245.9 L528.1,246.2 L538.1,250.3 L543.3,247.8 L532.7,288.6 L532.2,325.9 L530.2,337.0 L531.9,342.9 L532.5,347.4 L537.0,354.9 L543.6,360.9 L541.6,368.5 L542.0,360.9 L532.7,349.4 L535.9,360.2 L538.9,363.3 L547.4,382.6 L565.8,403.7 L570.3,417.0 L583.3,430.3 L579.8,430.1 L582.3,431.7 L587.1,433.1 L585.3,431.0 L588.6,432.3 L597.9,432.3 L602.1,435.5 L607.4,436.6 L610.5,440.7 L614.0,445.0 L616.1,445.1 L637.8,437.1 L654.0,435.1 L658.0,431.1 L663.4,429.4 L664.4,429.1 L675.7,427.2 L678.1,429.1 L677.5,431.9 L686.8,433.1 L688.9,430.8 L692.8,428.3 L690.6,421.4 L688.3,423.3 L688.4,421.8 L704.4,408.6 L704.8,398.8 L709.2,392.8 L708.2,377.1 L710.4,365.2 L722.5,357.3 L744.5,351.7 L753.9,346.7 L764.7,344.8 L783.0,346.9 L784.2,344.2 L779.5,344.6 L785.4,342.1 L793.1,346.5 L795.1,353.3 L792.4,363.1 L782.0,378.7 L782.4,388.2 L777.1,394.6 L777.1,395.8 L778.3,396.7 L783.5,395.4 L783.4,397.5 L782.4,399.1 L778.4,401.9 L778.7,404.3 L782.4,403.2 L777.2,427.9 L776.2,430.3 L775.5,430.2 L773.3,426.1 L771.3,425.2 L770.7,424.2 L771.4,418.8 L770.6,416.0 L769.6,416.2 L765.1,426.1 L759.7,427.3 L753.8,440.3 L752.6,441.3 L751.7,441.8 L745.9,440.9 L745.3,442.7 L745.5,444.9 L701.1,448.6 L702.0,463.1 L697.0,463.4 L691.8,463.8 L709.8,476.6 L712.0,481.5 L717.5,484.1 L717.3,492.4 L685.6,494.8 L675.3,516.0 L675.3,517.0 L678.7,521.0 L675.5,534.8 L651.2,513.1 L632.0,498.7 L620.4,493.3 L619.6,493.3 L619.2,494.9 L629.9,499.7 L618.1,496.0 L613.4,495.8 L614.4,492.1 L610.1,493.8 L607.3,490.6 L604.5,494.3 L610.0,495.8 L606.3,496.0 L601.8,497.1 L593.9,502.6 L568.3,512.0 L560.9,510.4 L551.4,506.0 L537.2,505.0 L527.6,499.2 L518.1,496.9 L512.0,491.2 L489.0,486.9 L480.7,481.9 L460.4,475.0 L441.8,463.6 L434.0,455.7 L414.9,453.1 L407.1,449.9 L396.8,446.3 L385.4,433.3 L360.6,420.7 L347.7,403.3 L343.4,392.7 L353.3,387.9 L351.8,383.4 L347.4,381.9 L354.1,374.1 L354.9,364.5 L349.7,361.1 L344.7,351.5 L344.9,342.8 L341.6,335.0 L327.5,320.1 L315.5,302.1 L312.1,298.5 L296.6,286.3 L297.5,286.3 L302.0,289.3 L302.5,286.0 L292.4,282.4 L285.2,270.1 L288.4,271.9 L290.5,270.7 L275.9,262.0 L274.7,260.9 L274.0,257.9 L268.3,259.1 L267.5,258.2 L267.5,257.3 L271.9,252.8 L264.6,256.1 L260.4,252.4 L259.8,244.5 L265.4,237.7 L266.3,239.0 L267.2,239.2 L263.9,231.8 L259.4,227.0 L255.0,227.1 L253.2,226.9 L249.4,217.0 L241.9,214.4 L239.8,212.5 L237.6,210.1 L235.0,201.4 L236.1,197.8 L237.3,196.1 L224.1,192.6 L202.6,164.1 L202.2,161.5 L201.8,157.5 L200.1,156.0 L198.5,155.3 L198.1,150.4 L191.8,138.3 L191.7,134.7 L190.6,130.1 L188.3,124.5 L186.2,120.7 L185.8,110.4 L187.7,107.2 L175.5,101.9 L175.6,98.7 L174.3,97.2 L173.0,96.2 L169.1,94.0 L168.4,94.9 L167.7,96.6 L165.9,96.8 L164.4,96.7 L148.4,85.1 L150.9,91.9 L149.3,94.6 L147.5,104.3 L151.2,121.4 L150.2,128.3 L150.4,130.4 L155.3,139.3 L167.8,152.4 L172.5,164.1 L175.2,163.8 L176.3,167.4 L177.7,167.4 L178.8,168.0 L180.7,175.5 L185.5,178.2 L187.3,193.8 L191.1,198.4 L195.9,202.2 L196.6,206.8 L198.4,211.1 L200.4,212.3 L202.4,214.1 L204.9,224.6 L208.5,227.4 L206.9,224.5 L206.1,222.7 L206.2,219.9 L206.8,219.6 L211.7,224.3 L216.1,239.7 L215.8,244.6 L216.5,248.3 L219.4,254.1 L222.0,255.5 L222.3,258.2 L224.6,265.5 L227.6,269.5 L229.0,272.9 L227.5,280.0 L228.9,286.4 L235.3,293.0 L238.1,286.9 L248.1,297.9 L250.9,305.2 L254.8,307.0 L256.7,310.1 L254.5,318.3 L246.5,324.0 L244.1,324.8 L242.2,324.5 L234.7,305.8 L205.4,279.5 L203.8,279.4 L202.6,279.6 L201.7,276.3 L196.8,271.6 L195.9,269.1 L195.9,266.3 L198.2,252.7 L196.4,243.8 L192.3,235.8 L189.0,234.0 L186.0,232.7 L178.3,225.2 L176.0,215.6 L174.6,217.8 L173.0,219.4 L169.5,219.0 L165.4,220.6 L160.4,213.9 L147.3,206.2 L145.6,200.6 L136.1,191.8 L135.4,190.1 L135.4,189.0 L140.2,189.8 L145.8,191.5 L152.1,189.7 L152.3,190.6 L151.8,192.2 L156.8,195.2 L155.4,188.8 L153.3,188.9 L153.0,188.2 L159.1,176.0 L157.3,171.2 L141.5,150.5 L126.3,138.5 L125.1,133.8 L123.9,133.0 L124.6,129.9 L124.7,124.2 L123.9,122.6 L121.1,120.9 L120.7,110.8 L116.1,106.0 L116.0,100.0 L110.0,89.9 L110.3,86.5 L109.2,85.4 L111.4,85.1 L111.8,82.7 L107.3,78.4 L103.1,64.0 Z M793.3,375.6 L792.1,376.5 L791.2,373.8 L791.9,370.9 L796.8,368.0 L793.3,375.6 Z M324.1,360.7 L323.4,362.8 L321.6,361.9 L321.0,360.6 L320.9,358.4 L324.1,360.7 Z M215.0,430.1 L213.6,430.5 L211.5,428.8 L212.1,427.6 L213.4,426.8 L214.4,428.5 L215.0,430.1 Z M232.0,269.5 L232.5,272.5 L231.3,272.0 L229.0,267.4 L232.0,269.5 Z M180.5,161.5 L173.5,154.4 L172.1,147.4 L173.8,147.9 L175.7,149.9 L176.4,151.8 L176.3,153.8 L180.0,155.1 L180.2,159.5 L180.5,161.5 Z M133.0,182.9 L132.6,183.7 L129.0,181.6 L132.3,175.1 L133.0,182.9 Z M201.7,164.3 L199.5,170.3 L197.8,170.1 L194.4,167.9 L197.2,158.9 L200.3,158.2 L201.7,164.3 Z M66.9,153.3 L65.9,154.2 L64.0,148.5 L64.1,147.2 L65.0,146.6 L66.9,153.3 Z M682.8,427.7 L680.1,428.5 L679.6,428.0 L686.2,425.3 L683.4,426.8 L682.8,427.7 Z M221.3,242.7 L218.1,247.2 L219.4,242.0 L220.5,241.4 L221.6,241.3 L221.3,242.7 Z M204.7,283.6 L204.3,284.8 L197.6,279.6 L199.3,279.2 L201.3,279.7 L204.7,283.6 Z M196.6,279.2 L191.5,272.5 L193.5,268.5 L195.6,260.0 L194.0,271.4 L196.6,279.2 Z" fill="#93c5fd" stroke="#ffffff" stroke-width="0.8"/>
<text x="376" y="288" text-anchor="middle" font-size="12" font-weight="700" fill="#475569">멕시코</text>
</g>
<path d="M815.5,251.7 L816.2,248.2 L824.8,238.8 L844.0,238.3 L846.6,236.9 L850.7,230.1 L855.7,241.6 L870.6,264.6 L872.4,270.1 L873.6,278.2 L872.5,296.0 L876.0,295.9 L873.0,310.2 L868.9,318.4 L866.0,320.0 L854.1,320.6 L852.2,322.8 L852.7,326.6 L845.4,325.0 L844.1,322.7 L837.4,324.4 L835.8,326.1 L837.4,330.5 L835.6,331.2 L833.3,327.4 L830.8,327.8 L832.4,332.9 L829.1,337.1 L825.9,334.9 L827.5,329.5 L820.0,337.6 L817.0,335.7 L812.2,340.7 L811.2,336.1 L806.7,331.4 L812.2,330.9 L811.1,329.4 L813.7,327.6 L810.1,327.6 L807.5,319.1 L811.8,310.2 L814.4,308.5 L811.8,306.5 L816.6,303.4 L817.4,300.8 L815.2,299.4 L816.2,297.1 L813.0,293.1 L812.1,279.6 L805.8,279.5 L805.4,277.5 L812.2,271.5 L818.3,273.1 L820.1,276.3 L822.3,273.4 L820.0,272.4 L817.6,266.8 L818.5,264.2 L815.7,260.3 L814.0,253.3 L815.2,252.3 L815.5,251.7 Z M859.0,328.4 L857.1,330.0 L853.7,326.7 L858.6,322.8 L859.0,328.4 Z M844.8,328.3 L844.6,330.8 L843.1,330.9 L840.0,328.1 L841.6,325.3 L844.2,326.4 L844.8,328.3 Z M805.9,339.2 L803.3,338.4 L806.3,334.2 L809.1,336.0 L808.1,337.8 L805.9,339.2 Z M813.2,252.8 L813.0,256.2 L810.8,255.0 L810.1,251.8 L812.6,251.6 L813.2,252.8 Z M810.6,284.7 L810.3,286.4 L808.9,285.3 L808.6,281.6 L810.0,282.7 L810.6,284.7 Z M804.8,329.9 L801.4,326.3 L802.9,325.2 L804.8,327.4 L804.8,329.9 Z M807.5,368.7 L805.4,368.6 L804.8,364.9 L816.9,360.3 L819.9,361.4 L820.0,364.8 L813.0,368.4 L807.5,368.7 Z" fill="#ef4444" fill-opacity="0.95" stroke="#9a3412" stroke-width="1.1"/>
<circle cx="399.3" cy="386.4" r="2.6" fill="#334155" stroke="#fff" stroke-width="0.7"/>
<text x="404" y="390" font-size="10.5" fill="#334155">과달라하라</text>
<circle cx="470.1" cy="256.8" r="2.6" fill="#334155" stroke="#fff" stroke-width="0.7"/>
<text x="475" y="261" font-size="10.5" fill="#334155">몬테레이</text>
<circle cx="793.2" cy="353.3" r="2.6" fill="#334155" stroke="#fff" stroke-width="0.7"/>
<text x="798" y="357" font-size="10.5" fill="#334155">칸쿤</text>
<circle cx="501.5" cy="417.1" r="3.6" fill="#fde047" stroke="#1e293b" stroke-width="1.2"/>
<text x="507.5" y="421.1" font-size="11" font-weight="700" fill="#1e293b">★멕시코시티</text>
<text x="470" y="636" text-anchor="middle" font-size="16" font-weight="600" fill="#334155">빨강이 한국 — 멕시코는 한국의 약 20배</text>
</svg>
