<svg xmlns="http://www.w3.org/2000/svg" width="940" height="521" viewBox="0 0 940 521" font-family="Pretendard, sans-serif">
<rect width="940" height="521" fill="#dbeafe"/>
<clipPath id="win"><rect x="334.8" y="65.2" width="541.2" height="331.8"/></clipPath>
<text x="470" y="34" text-anchor="middle" font-size="21" font-weight="700" fill="#1e293b">미국이 한국 옆에 오면 (동아시아 크기 비교)</text>
<g clip-path="url(#win)">
<path d="M685.5,-19.5 L684.9,-17.2 L682.3,-17.2 L685.3,-19.5 L685.5,-19.5 Z M645.6,148.5 L643.9,145.6 L644.3,144.5 L642.8,143.2 L648.8,140.6 L650.3,134.4 L649.3,130.3 L649.8,125.5 L646.7,115.7 L650.9,113.7 L654.3,109.1 L664.5,112.3 L666.0,110.9 L666.3,106.1 L668.4,104.6 L668.8,101.0 L671.5,96.0 L671.3,92.8 L673.5,84.5 L673.0,82.3 L676.1,79.7 L677.6,76.5 L675.6,72.8 L676.2,69.7 L672.8,68.5 L666.0,72.6 L663.2,72.7 L659.5,75.0 L657.8,78.1 L644.5,78.9 L642.3,75.0 L642.7,70.8 L640.4,67.6 L640.8,65.4 L640.2,64.3 L637.1,64.0 L630.9,57.8 L627.2,58.1 L625.1,57.0 L624.1,55.3 L618.1,55.8 L614.3,52.9 L613.8,50.7 L614.5,47.7 L612.4,45.9 L612.1,41.3 L608.9,36.3 L607.9,31.1 L605.5,25.8 L604.2,20.2 L601.6,17.0 L601.8,15.4 L599.3,13.4 L598.7,11.5 L594.2,9.4 L592.1,10.2 L583.9,5.2 L580.5,4.5 L571.0,5.5 L562.2,7.1 L559.9,8.4 L554.2,13.8 L555.1,15.4 L558.9,16.1 L559.2,22.1 L557.0,25.2 L553.2,28.1 L544.4,42.8 L545.8,44.5 L544.8,47.2 L537.8,49.5 L532.5,53.3 L527.3,51.3 L519.4,45.5 L515.0,46.7 L512.6,46.2 L507.6,41.2 L504.0,40.2 L497.4,42.8 L493.6,44.9 L492.3,47.1 L490.0,48.0 L477.4,48.2 L471.6,50.0 L459.9,45.3 L454.7,44.5 L450.3,39.3 L450.8,35.5 L445.4,33.8 L442.2,28.8 L438.2,28.0 L432.1,24.3 L424.2,24.7 L420.6,25.8 L414.6,23.6 L408.0,16.7 L408.8,15.1 L408.4,13.5 L409.7,6.8 L404.5,3.9 L398.7,-1.5 L394.7,-3.1 L388.6,-10.0 L385.2,-6.7 L382.7,-6.4 L380.7,-4.2 L377.9,-2.9 L375.3,1.2 L375.2,5.9 L376.5,8.5 L373.1,13.1 L364.6,15.0 L363.6,12.6 L358.5,10.5 L355.4,7.9 L352.4,8.2 L349.4,6.8 L348.9,5.5 L380.8,-66.7 L856.3,-77.6 L857.6,-70.9 L859.8,-67.6 L862.5,-65.7 L864.2,-62.3 L862.9,-59.0 L859.1,-58.5 L857.0,-56.8 L854.3,-50.7 L855.0,-45.2 L857.1,-42.7 L857.7,-40.5 L860.0,-37.9 L856.3,-37.9 L852.8,-33.9 L852.1,-31.6 L850.1,-32.8 L849.5,-32.4 L849.6,-31.4 L851.4,-30.8 L851.8,-27.5 L853.2,-24.6 L853.4,-16.6 L847.6,-2.7 L845.7,-5.6 L843.8,-7.1 L837.0,-20.4 L833.4,-24.1 L827.8,-34.4 L819.9,-47.1 L817.0,-52.8 L814.6,-61.0 L685.6,-31.0 L679.3,-24.9 L677.6,-21.8 L673.3,-18.3 L671.5,-15.9 L671.8,-13.2 L676.5,-11.8 L683.5,-13.1 L684.0,-11.0 L683.9,-4.2 L684.4,-2.7 L685.1,-2.4 L687.7,-3.3 L688.1,-5.9 L686.7,-7.1 L687.0,-7.8 L688.6,-9.3 L690.7,-9.6 L688.6,-7.0 L692.7,-5.5 L689.0,0.1 L694.2,-1.3 L696.3,-3.1 L696.9,-5.6 L697.9,-6.3 L698.6,-4.6 L696.7,-0.5 L698.2,-0.9 L699.4,-5.4 L698.8,-9.9 L698.2,-10.8 L703.5,-10.1 L706.2,-11.6 L710.3,-9.3 L712.1,-6.5 L715.3,-4.2 L721.3,-1.2 L721.8,0.1 L720.5,2.5 L717.7,2.1 L721.5,4.7 L722.1,8.3 L721.6,9.9 L725.0,12.7 L724.7,16.1 L722.0,20.5 L720.6,31.4 L720.8,34.7 L722.3,39.8 L723.1,40.3 L722.2,42.7 L723.4,46.7 L722.8,53.8 L723.6,54.9 L722.7,57.5 L722.8,60.7 L717.4,69.8 L715.2,76.7 L712.2,81.3 L710.9,88.2 L706.4,98.1 L699.6,107.3 L694.5,116.7 L692.2,118.5 L689.4,125.7 L686.5,130.0 L676.6,138.3 L668.8,142.1 L664.4,140.1 L660.5,140.3 L660.2,134.7 L657.7,137.4 L656.2,137.8 L657.5,135.3 L656.8,135.1 L654.8,136.5 L649.9,144.2 L645.6,144.0 L646.8,145.6 L646.0,148.2 L645.6,148.5 Z M728.8,-16.9 L731.1,-14.0 L731.7,-9.6 L735.4,-3.8 L737.2,0.3 L738.1,4.7 L737.7,8.2 L739.0,13.3 L741.0,17.6 L742.4,18.9 L748.7,33.3 L756.2,46.4 L759.9,49.7 L760.8,52.6 L758.6,49.7 L753.6,46.0 L750.8,45.7 L745.9,48.1 L744.4,63.2 L745.1,67.4 L747.4,70.8 L749.4,72.1 L753.2,78.4 L755.6,78.5 L757.5,83.3 L757.1,87.8 L754.4,81.3 L747.9,80.6 L746.7,82.7 L745.4,91.3 L744.1,90.2 L741.9,84.9 L742.1,75.8 L740.3,70.2 L741.2,64.5 L740.1,61.0 L736.7,55.6 L736.9,44.8 L735.3,36.6 L733.6,31.5 L733.7,26.6 L733.2,23.8 L730.8,20.3 L728.0,18.0 L728.5,17.2 L727.0,15.6 L726.1,11.3 L726.3,4.5 L724.6,-2.4 L726.6,-4.8 L728.2,-3.9 L729.7,-4.7 L729.9,-5.9 L729.2,-6.4 L730.2,-7.7 L729.8,-10.6 L725.9,-14.9 L727.6,-15.2 L728.2,-17.1 L728.8,-16.9 Z M691.2,-20.1 L693.3,-19.6 L690.4,-14.4 L688.1,-16.9 L686.5,-15.6 L688.3,-21.0 L690.9,-20.3 L691.2,-20.1 Z M840.5,22.7 L839.0,23.5 L838.7,22.4 L839.1,18.6 L839.8,18.6 L839.8,20.8 L840.5,22.2 L840.5,22.7 Z M846.5,2.0 L844.4,1.8 L845.3,-0.4 L846.2,-0.4 L846.7,0.7 L846.5,2.0 Z M844.6,7.7 L841.7,12.2 L840.3,12.0 L839.2,9.6 L842.2,7.1 L843.0,1.9 L843.6,1.5 L844.3,2.6 L844.8,5.5 L844.6,7.7 Z M837.1,31.0 L836.5,31.5 L836.9,29.5 L837.8,29.9 L837.1,31.0 Z M839.9,2.0 L839.3,2.4 L838.2,1.4 L839.5,1.0 L839.9,1.7 L839.9,2.0 Z M828.0,59.7 L826.9,61.5 L825.8,60.9 L826.9,60.4 L829.4,55.9 L828.0,59.7 Z M813.0,80.8 L811.1,81.9 L812.1,78.3 L816.3,72.3 L818.4,71.7 L814.2,78.5 L813.0,80.8 Z M804.6,87.2 L802.0,89.2 L799.7,92.8 L797.5,93.4 L794.8,99.7 L792.5,102.2 L794.2,95.8 L798.7,89.8 L798.5,87.8 L800.0,89.0 L802.3,88.2 L805.4,84.2 L806.3,86.7 L804.6,87.2 Z M792.9,111.0 L791.9,111.2 L791.8,110.3 L793.5,109.3 L794.3,109.8 L792.9,111.0 Z M786.0,102.4 L789.4,102.4 L784.6,107.9 L782.3,111.8 L782.6,114.2 L781.3,113.5 L781.1,111.7 L783.1,108.6 L785.2,102.5 L786.0,102.4 Z" fill="#e7e5e4" stroke="#ffffff" stroke-width="0.8"/>
<path d="M348.9,5.5 L349.4,6.8 L352.4,8.2 L355.4,7.9 L358.5,10.5 L363.6,12.6 L364.6,15.0 L372.1,13.6 L375.3,10.7 L376.5,8.5 L375.2,5.9 L375.3,1.2 L377.9,-2.9 L380.7,-4.2 L382.7,-6.4 L385.2,-6.7 L388.6,-10.0 L394.7,-3.1 L398.7,-1.5 L404.5,3.9 L409.7,6.8 L408.4,13.5 L408.8,15.1 L408.0,16.7 L414.6,23.6 L420.6,25.8 L424.2,24.7 L432.1,24.3 L438.2,28.0 L442.2,28.8 L445.4,33.8 L450.8,35.5 L450.3,39.3 L454.7,44.5 L459.9,45.3 L471.6,50.0 L477.4,48.2 L490.0,48.0 L492.3,47.1 L493.6,44.9 L502.0,40.8 L504.0,40.2 L507.0,41.0 L512.6,46.2 L515.0,46.7 L519.4,45.5 L522.9,48.3 L515.7,61.0 L513.6,63.4 L512.7,67.6 L510.3,68.8 L510.2,71.2 L511.3,73.2 L512.7,74.8 L515.9,73.0 L520.5,73.3 L525.3,76.6 L529.4,72.7 L535.7,73.3 L537.7,76.4 L540.4,77.9 L541.0,79.6 L545.4,84.8 L546.7,88.7 L546.3,91.0 L544.8,91.8 L539.9,91.0 L537.3,89.2 L536.1,90.0 L530.3,89.8 L527.2,91.5 L524.6,90.4 L523.3,93.1 L518.5,92.5 L514.2,95.6 L512.2,100.1 L507.1,103.1 L496.9,102.8 L491.7,107.6 L486.8,109.9 L479.1,107.0 L476.8,104.4 L472.2,103.6 L469.2,106.2 L466.1,111.8 L469.1,117.9 L469.5,120.9 L465.5,123.1 L460.1,124.3 L453.2,130.6 L442.5,133.2 L431.6,131.0 L418.1,130.4 L401.9,134.2 L399.4,135.6 L395.1,133.7 L395.8,130.9 L388.1,130.8 L383.1,126.1 L375.2,122.0 L370.5,115.6 L357.4,110.0 L352.4,110.1 L333.1,101.0 L325.6,99.5 L325.7,96.7 L323.5,91.0 L323.7,81.6 L322.3,79.9 L323.7,77.3 L320.7,76.1 L348.9,5.5 Z" fill="#e7e5e4" stroke="#ffffff" stroke-width="0.8"/>
<path d="M287.8,395.4 L285.4,393.4 L283.1,394.1 L280.2,392.9 L280.0,395.7 L278.1,396.2 L275.0,395.1 L272.4,398.9 L265.8,398.3 L261.8,396.4 L258.7,399.5 L257.7,403.7 L256.1,405.9 L255.7,410.4 L251.1,410.2 L251.6,412.4 L253.6,413.9 L253.9,418.8 L253.2,420.5 L259.9,433.3 L261.1,442.2 L263.3,441.6 L263.8,442.6 L262.6,444.6 L259.6,445.6 L257.6,454.3 L252.8,455.2 L252.5,458.2 L255.6,467.2 L259.3,472.3 L261.1,477.2 L259.6,485.9 L260.1,489.9 L262.1,492.9 L263.2,503.3 L256.6,510.7 L250.4,515.1 L248.9,521.0 L246.8,522.5 L246.8,514.1 L250.0,510.7 L252.0,503.2 L253.9,501.9 L253.1,501.0 L251.0,501.0 L252.7,494.9 L251.5,494.4 L252.7,493.3 L253.1,482.6 L250.3,474.2 L250.3,470.9 L248.9,475.1 L248.6,474.1 L249.4,468.3 L248.2,461.4 L249.5,461.8 L247.5,458.5 L248.6,445.1 L247.4,442.9 L249.1,437.4 L250.4,436.3 L246.2,435.8 L245.5,427.9 L242.1,422.8 L241.9,427.7 L237.3,432.8 L234.1,432.5 L232.7,428.8 L233.0,433.7 L226.1,435.0 L224.6,437.2 L220.5,439.5 L219.6,438.8 L221.0,434.5 L218.3,437.5 L216.2,436.8 L245.8,308.8 L248.0,306.4 L248.7,300.6 L249.9,299.3 L263.6,294.4 L269.7,295.2 L271.4,298.5 L273.0,299.2 L272.1,292.4 L278.2,289.4 L278.9,285.8 L282.2,282.7 L285.5,285.8 L287.1,289.1 L287.3,297.3 L289.4,296.4 L291.2,298.1 L289.5,309.5 L287.4,315.9 L285.7,317.0 L286.1,320.0 L283.8,320.4 L281.7,322.5 L279.6,322.2 L277.3,325.3 L275.0,325.3 L273.2,327.7 L273.0,329.9 L271.0,330.6 L269.9,332.3 L269.5,334.1 L270.7,338.0 L268.2,341.6 L276.0,341.1 L283.1,342.8 L280.7,345.1 L281.6,349.2 L280.8,354.9 L286.8,358.1 L287.5,359.7 L285.7,361.1 L281.7,369.5 L289.7,372.9 L289.3,376.4 L291.7,381.0 L296.3,382.0 L299.4,380.3 L303.0,380.1 L301.8,383.4 L296.9,385.1 L294.3,387.9 L294.0,388.8 L295.0,389.9 L290.3,390.5 L288.0,394.7 L287.8,395.4 Z M244.2,509.7 L244.3,512.5 L243.4,510.3 L242.5,510.2 L243.7,509.3 L244.2,509.7 Z M241.9,522.7 L241.0,523.2 L241.5,522.0 L242.6,521.4 L243.5,521.5 L242.6,522.6 L241.9,522.7 Z M245.4,503.1 L246.9,499.4 L246.0,502.6 L245.4,503.1 Z M249.8,498.5 L249.6,496.0 L250.6,498.4 L249.8,498.5 Z M250.0,500.7 L249.3,503.2 L248.2,502.6 L247.9,499.5 L249.7,499.8 L250.0,500.7 Z M250.0,489.3 L250.3,491.0 L248.2,492.4 L248.9,488.0 L249.9,488.6 L250.0,489.3 Z M247.9,439.9 L246.9,438.9 L247.1,436.9 L248.5,436.9 L248.4,438.1 L247.9,439.9 Z M244.0,499.9 L243.5,497.5 L244.1,499.4 L244.0,499.9 Z M249.8,482.6 L249.4,484.7 L248.9,483.5 L249.2,481.3 L249.7,481.9 L249.8,482.6 Z" fill="#e7e5e4" stroke="#ffffff" stroke-width="0.8"/>
<path d="M298.5,508.4 L296.9,508.2 L296.9,506.0 L298.3,507.9 L298.5,508.4 Z M239.7,547.7 L240.5,545.7 L241.8,547.1 L241.3,548.1 L239.7,547.7 Z M287.8,395.4 L287.8,396.4 L290.3,395.1 L292.1,398.3 L289.7,403.4 L290.6,406.3 L293.2,407.5 L296.0,406.9 L298.8,408.4 L298.4,415.9 L294.3,422.1 L294.8,426.2 L290.8,432.7 L291.3,433.4 L293.7,434.5 L300.8,430.9 L302.1,429.3 L306.4,427.9 L311.3,432.3 L312.3,434.4 L317.4,432.7 L321.0,428.5 L328.8,431.3 L329.8,432.8 L337.3,446.4 L335.6,451.6 L335.8,457.1 L338.1,461.6 L342.2,464.6 L341.8,466.6 L344.5,469.4 L342.0,474.2 L342.1,478.4 L341.0,482.7 L335.1,486.4 L334.1,484.3 L331.8,483.1 L321.8,482.1 L317.2,480.3 L312.1,480.5 L308.2,482.2 L302.8,488.3 L300.1,488.1 L299.5,491.6 L300.7,495.4 L300.6,499.9 L303.3,503.7 L302.5,507.9 L304.3,513.3 L300.9,506.1 L300.1,507.2 L297.1,502.8 L296.6,503.5 L292.3,498.5 L280.7,495.8 L282.9,486.0 L278.8,483.3 L271.2,484.4 L270.6,485.7 L271.5,488.5 L269.2,492.7 L268.5,499.4 L262.7,507.4 L259.9,514.4 L254.9,520.7 L253.8,528.2 L254.8,532.6 L254.1,534.4 L255.8,535.5 L261.4,535.8 L262.2,545.2 L263.7,547.6 L264.3,546.7 L265.0,548.0 L265.7,553.7 L247.7,549.6 L244.1,544.2 L241.0,545.5 L239.9,542.2 L240.6,537.8 L249.7,519.1 L250.4,515.1 L256.6,510.7 L263.2,503.3 L262.1,492.9 L260.1,489.9 L259.6,485.9 L261.1,477.2 L259.3,472.3 L255.6,467.2 L252.5,458.2 L252.8,455.2 L257.6,454.3 L259.6,445.6 L262.6,444.6 L263.8,442.6 L263.3,441.6 L261.1,442.2 L259.9,433.3 L253.2,420.5 L253.9,418.8 L253.6,413.9 L251.6,412.4 L251.1,410.2 L255.7,410.4 L256.1,405.9 L257.7,403.7 L258.7,399.5 L261.8,396.4 L265.8,398.3 L272.4,398.9 L275.0,395.1 L278.1,396.2 L280.0,395.7 L280.2,392.9 L286.6,394.3 L287.8,395.4 Z M264.9,532.7 L264.5,534.2 L263.3,534.5 L263.2,532.7 L264.5,532.7 L264.9,532.7 Z" fill="#e7e5e4" stroke="#ffffff" stroke-width="0.8"/>
<path d="M316.1,374.5 L320.3,381.8 L320.7,384.9 L322.8,383.6 L324.0,385.6 L321.9,390.7 L324.1,396.1 L329.9,400.0 L335.9,397.9 L341.0,402.9 L338.0,405.1 L340.9,406.5 L341.5,408.9 L343.2,409.3 L343.8,411.8 L339.0,416.1 L332.5,414.1 L332.4,416.6 L330.0,418.5 L338.9,426.9 L343.8,429.9 L342.9,432.9 L346.6,437.0 L348.7,442.8 L357.2,454.7 L357.2,458.7 L358.3,460.9 L360.8,461.0 L361.5,463.3 L366.7,468.2 L366.5,469.4 L363.5,470.8 L368.7,478.9 L366.1,482.0 L366.2,485.6 L364.7,487.2 L363.2,486.6 L358.4,489.2 L356.5,488.8 L353.4,485.1 L351.4,486.3 L349.8,485.8 L348.9,487.0 L346.5,486.9 L347.9,491.0 L347.0,492.5 L344.9,492.1 L340.7,488.3 L338.4,488.5 L337.2,487.1 L336.7,485.1 L341.0,482.7 L342.1,478.4 L342.0,474.2 L344.5,469.4 L341.8,466.6 L342.2,464.6 L338.1,461.6 L335.8,457.1 L335.6,451.6 L337.3,446.4 L328.8,431.3 L321.0,428.5 L317.4,432.7 L312.3,434.4 L311.3,432.3 L306.4,427.9 L302.1,429.3 L300.8,430.9 L293.7,434.5 L290.8,432.7 L294.8,426.2 L294.3,422.1 L298.4,415.9 L298.8,408.4 L296.0,406.9 L293.2,407.5 L290.6,406.3 L289.7,403.4 L292.1,398.3 L290.3,395.1 L287.6,396.2 L288.0,394.7 L290.3,390.5 L295.0,389.9 L294.0,388.8 L294.3,387.9 L296.9,385.1 L302.7,382.2 L303.1,387.3 L306.6,387.6 L308.3,389.1 L309.5,388.6 L308.9,387.1 L310.3,380.6 L308.8,374.5 L311.5,372.0 L312.8,373.6 L315.8,374.0 L316.1,374.5 Z" fill="#e7e5e4" stroke="#ffffff" stroke-width="0.8"/>
<path d="M316.5,532.9 L315.4,537.4 L313.7,532.7 L316.1,532.4 L316.5,532.9 Z M382.7,399.3 L380.8,399.1 L375.7,401.1 L374.6,403.9 L372.2,404.9 L366.5,403.2 L366.9,406.7 L364.1,409.0 L363.3,411.9 L358.5,415.0 L356.2,415.3 L350.1,426.9 L352.4,433.5 L358.8,442.0 L358.2,444.8 L356.9,444.2 L372.5,465.6 L374.9,465.9 L380.6,476.5 L383.3,479.6 L385.7,488.6 L387.3,500.0 L387.0,501.1 L386.6,499.9 L386.2,507.3 L387.7,511.7 L387.5,516.2 L386.3,514.1 L384.7,515.2 L385.5,518.6 L384.3,518.2 L384.4,524.1 L383.7,523.4 L383.3,526.9 L382.3,528.4 L381.1,528.3 L380.2,531.5 L378.0,531.4 L370.6,535.2 L368.3,535.3 L366.9,537.4 L357.1,540.0 L355.0,538.4 L354.2,536.1 L353.1,539.3 L350.4,537.1 L348.8,537.8 L350.5,538.3 L350.5,540.3 L346.8,539.6 L350.6,542.6 L347.9,545.5 L342.5,539.9 L346.7,545.8 L347.3,548.2 L344.7,548.8 L338.3,542.0 L342.0,547.9 L341.8,550.4 L332.9,552.8 L327.4,557.8 L322.9,557.4 L324.7,555.8 L323.8,554.9 L325.3,544.8 L326.3,542.2 L328.9,541.0 L325.5,537.1 L323.7,537.2 L321.1,533.5 L323.0,532.5 L326.6,533.0 L329.4,531.3 L329.6,528.6 L333.0,530.1 L334.3,528.9 L338.7,529.2 L339.8,531.1 L343.6,532.6 L343.9,529.5 L340.4,525.6 L340.9,521.2 L343.0,520.0 L347.8,521.8 L348.4,518.5 L352.0,518.7 L358.9,515.6 L361.2,516.6 L362.7,515.5 L363.6,513.3 L363.3,506.9 L365.5,502.0 L363.0,492.6 L363.8,489.6 L366.3,486.3 L366.1,482.0 L368.7,478.9 L363.5,470.8 L366.5,469.4 L366.7,468.2 L361.5,463.3 L360.8,461.0 L358.3,460.9 L357.2,458.7 L357.2,454.7 L348.7,442.8 L346.6,437.0 L342.9,432.9 L343.8,429.9 L338.9,426.9 L330.0,418.5 L332.4,416.6 L332.5,414.1 L339.0,416.1 L343.8,411.8 L343.2,409.3 L341.5,408.9 L340.9,406.5 L338.0,405.1 L341.0,402.9 L335.9,397.9 L329.9,400.0 L324.1,396.1 L321.9,390.7 L324.0,385.6 L322.8,383.6 L320.7,384.9 L320.3,381.8 L316.1,374.5 L320.9,370.6 L326.2,375.8 L330.9,372.6 L332.4,375.3 L334.3,373.2 L337.5,377.1 L340.4,374.2 L342.8,376.0 L346.8,375.3 L348.2,374.4 L349.5,371.6 L354.7,369.9 L357.3,374.0 L360.4,376.6 L364.1,376.7 L365.4,378.4 L368.5,378.4 L371.1,380.5 L367.8,383.6 L368.1,390.6 L371.7,391.9 L375.6,396.8 L380.5,397.0 L382.1,398.5 L382.7,399.3 Z M377.8,402.3 L375.2,403.5 L376.4,401.4 L377.4,402.2 L377.8,402.3 Z M376.3,405.9 L374.9,405.9 L376.8,405.2 L376.3,405.9 Z M370.2,407.2 L368.9,405.9 L370.5,406.0 L370.4,407.0 L370.2,407.2 Z" fill="#e7e5e4" stroke="#ffffff" stroke-width="0.8"/>
<path d="M366.2,485.6 L363.0,492.6 L365.5,502.0 L363.3,506.9 L363.2,514.7 L361.2,516.6 L358.9,515.6 L355.1,517.9 L348.4,518.5 L347.8,521.8 L343.0,520.0 L340.9,521.2 L340.4,525.6 L343.9,529.5 L343.6,532.6 L339.8,531.1 L338.0,529.1 L334.3,528.9 L333.0,530.1 L329.6,528.6 L329.4,531.3 L326.6,533.0 L323.0,532.5 L321.1,533.5 L319.2,531.5 L314.4,529.1 L311.6,530.4 L310.7,529.7 L310.3,528.1 L312.2,527.3 L312.9,525.7 L312.3,523.4 L310.9,522.0 L308.3,524.4 L305.8,524.0 L306.3,517.0 L302.5,507.9 L303.3,503.7 L300.6,499.9 L299.9,488.3 L302.8,488.3 L309.9,481.1 L316.6,480.2 L321.8,482.1 L331.8,483.1 L334.1,484.3 L334.6,486.3 L336.7,485.1 L338.4,488.5 L340.7,488.3 L344.9,492.1 L347.0,492.5 L347.9,491.0 L346.5,486.9 L348.9,487.0 L349.8,485.8 L351.4,486.3 L353.4,485.1 L356.5,488.8 L358.4,489.2 L363.2,486.6 L364.7,487.2 L365.5,486.0 L366.2,485.6 Z" fill="#e7e5e4" stroke="#ffffff" stroke-width="0.8"/>
<path d="M538.7,453.6 L547.7,458.1 L550.1,457.7 L551.5,455.8 L553.0,456.2 L553.6,458.0 L551.8,461.2 L551.3,466.3 L554.3,472.6 L555.7,473.4 L550.6,485.2 L543.7,488.2 L543.7,491.5 L540.9,495.8 L544.5,503.5 L543.6,505.4 L545.2,510.8 L547.0,512.7 L550.8,514.0 L551.7,513.2 L550.7,511.2 L554.4,509.2 L556.2,509.3 L560.0,511.0 L562.1,516.7 L563.7,516.8 L564.6,515.7 L564.1,513.9 L564.9,512.8 L571.2,515.8 L571.0,517.3 L567.7,518.2 L571.1,523.0 L570.6,525.1 L575.2,526.1 L574.1,532.0 L571.8,530.4 L572.7,527.6 L568.6,527.5 L564.6,525.7 L562.8,520.6 L559.0,518.3 L555.6,514.5 L554.0,514.7 L556.4,521.0 L556.5,522.8 L555.5,523.6 L552.7,519.3 L545.2,513.7 L541.7,514.8 L539.6,517.2 L536.4,516.6 L533.3,513.9 L531.9,513.6 L530.7,514.8 L530.6,509.9 L534.6,506.2 L534.9,504.2 L530.5,501.0 L530.3,506.1 L528.4,506.4 L526.2,501.9 L524.1,501.0 L522.2,488.3 L520.8,486.0 L520.9,482.9 L521.7,482.0 L525.7,485.8 L528.3,485.2 L527.8,478.3 L529.3,474.4 L529.7,469.0 L529.0,465.6 L532.4,454.6 L538.1,453.5 L538.7,453.6 Z M485.0,580.1 L483.8,581.0 L484.0,579.8 L485.7,576.7 L493.0,570.6 L496.0,569.4 L508.3,557.4 L511.0,556.0 L512.2,553.4 L511.6,551.4 L515.0,545.2 L515.7,546.3 L515.1,550.2 L517.0,556.1 L512.8,558.1 L510.4,561.3 L505.0,562.8 L504.8,564.7 L500.1,570.9 L496.1,572.5 L494.1,575.2 L486.4,579.5 L485.0,580.1 Z M553.7,543.6 L558.1,544.0 L559.3,544.9 L558.8,546.0 L562.2,544.9 L561.7,548.0 L560.3,550.1 L557.5,551.6 L557.1,553.7 L549.6,556.0 L546.4,558.2 L548.7,543.1 L546.0,541.1 L547.8,539.8 L552.5,542.4 L553.7,543.6 Z M561.4,576.1 L559.6,576.2 L558.0,572.8 L554.0,570.6 L552.0,566.3 L553.0,564.5 L558.0,563.1 L557.6,557.8 L559.5,555.4 L559.8,553.0 L562.9,551.8 L566.7,552.7 L567.4,554.6 L561.9,566.0 L561.7,569.3 L563.9,573.0 L562.2,575.9 L561.4,576.1 Z M580.5,547.7 L585.1,547.4 L586.6,550.4 L586.1,554.9 L588.1,556.8 L589.4,560.9 L587.8,561.4 L587.8,562.4 L585.8,560.1 L586.2,564.4 L583.0,562.6 L583.2,554.9 L581.6,552.6 L578.8,553.0 L577.1,545.8 L577.4,545.2 L580.2,547.0 L580.5,547.7 Z M589.2,532.8 L590.2,535.4 L593.0,537.1 L592.0,540.1 L592.4,544.7 L593.9,548.1 L593.4,549.2 L595.7,551.3 L589.0,550.3 L585.3,546.0 L586.0,542.4 L584.6,542.3 L581.9,539.1 L579.0,537.4 L577.1,532.1 L588.1,532.2 L589.2,532.8 Z M531.4,518.9 L534.9,519.0 L536.7,520.4 L537.7,519.8 L541.9,524.4 L541.0,526.4 L541.7,530.1 L539.7,534.3 L536.7,535.0 L532.2,528.3 L530.9,523.4 L528.2,519.9 L526.7,519.6 L527.5,518.3 L530.7,518.7 L531.4,518.9 Z M599.0,573.5 L601.4,574.1 L601.4,576.0 L602.9,578.2 L603.1,579.5 L600.7,582.7 L603.7,584.1 L604.9,587.6 L604.6,590.2 L550.3,589.2 L558.3,587.5 L560.2,584.1 L564.0,582.5 L565.3,580.8 L568.5,581.9 L570.6,584.3 L571.0,587.4 L569.9,589.2 L575.2,587.0 L578.0,582.4 L580.8,583.4 L582.2,582.9 L584.1,577.8 L587.6,579.1 L588.5,577.1 L592.3,577.3 L592.8,575.7 L591.3,569.0 L592.0,567.9 L598.3,572.2 L599.0,573.5 Z M564.6,571.4 L563.9,570.8 L564.9,564.8 L569.2,558.5 L573.6,548.5 L573.0,559.5 L569.0,562.9 L566.2,569.6 L564.6,571.4 Z M548.9,450.4 L547.7,451.0 L548.6,449.2 L549.8,449.7 L548.9,450.4 Z M544.2,444.2 L544.3,445.4 L543.5,445.3 L542.6,443.7 L544.2,444.2 Z M519.9,556.4 L518.3,556.7 L518.0,555.5 L519.2,554.4 L520.8,555.8 L519.9,556.4 Z M523.1,535.2 L524.7,534.7 L525.8,537.3 L523.0,537.4 L521.2,536.4 L520.1,534.7 L520.5,533.2 L522.8,534.8 L523.1,535.2 Z M522.1,541.1 L520.9,541.2 L519.9,537.8 L522.1,538.4 L522.5,540.1 L522.1,541.1 Z M555.4,558.1 L553.9,558.7 L553.7,557.8 L555.5,555.0 L556.6,555.9 L555.8,557.8 L555.4,558.1 Z M580.6,567.4 L577.5,569.4 L574.4,569.7 L572.0,569.3 L570.6,567.6 L571.1,566.1 L575.1,562.9 L577.3,562.6 L580.4,564.4 L580.4,566.9 L580.6,567.4 Z M599.7,567.9 L598.8,566.9 L599.9,564.2 L600.7,567.8 L599.7,567.9 Z M594.9,566.0 L592.3,563.4 L592.7,560.9 L594.6,559.3 L594.9,565.7 L594.9,566.0 Z M526.0,515.2 L526.0,516.1 L523.9,514.7 L524.1,513.7 L525.2,514.3 L526.0,515.2 Z M546.8,518.8 L549.4,519.9 L547.9,523.2 L545.7,521.5 L546.2,518.5 L546.8,518.8 Z M548.8,534.0 L547.6,537.1 L546.6,534.2 L547.6,530.9 L549.5,530.3 L549.3,531.7 L548.8,534.0 Z M555.9,534.8 L553.0,532.9 L555.3,532.5 L556.3,533.9 L555.9,534.8 Z M564.1,528.2 L565.2,530.1 L559.9,525.4 L561.1,524.8 L563.2,527.5 L564.1,528.2 Z M570.4,533.4 L569.9,534.1 L568.0,531.1 L569.6,531.4 L570.4,533.4 Z M569.6,535.5 L572.0,537.1 L573.7,539.7 L573.7,542.4 L566.5,536.3 L562.3,539.9 L563.8,534.0 L563.5,531.6 L567.8,533.9 L569.6,535.5 Z M578.0,518.6 L575.7,519.8 L574.2,518.8 L575.9,513.1 L578.9,515.5 L578.7,518.0 L578.0,518.6 Z M550.3,512.5 L547.6,511.0 L547.6,510.1 L550.3,512.5 Z M548.9,500.2 L548.2,504.6 L547.2,504.5 L547.4,502.8 L546.1,500.7 L546.4,499.7 L548.1,499.7 L548.9,500.2 Z M589.5,565.1 L588.0,564.0 L587.6,562.9 L588.9,563.4 L589.5,565.1 Z M581.0,545.8 L579.4,545.9 L577.8,543.6 L579.7,543.3 L581.2,545.1 L581.0,545.8 Z M583.3,575.6 L582.9,576.4 L581.1,575.2 L582.0,574.3 L583.1,575.0 L583.3,575.6 Z M540.8,447.7 L540.7,448.5 L539.9,447.4 L540.3,446.3 L540.7,446.9 L540.8,447.7 Z M519.7,543.2 L519.2,545.1 L517.9,543.8 L519.2,543.3 L519.7,543.2 Z M598.5,570.0 L598.2,568.2 L598.8,568.9 L598.5,570.0 Z M584.2,544.6 L583.2,544.7 L582.6,543.0 L583.7,544.2 L584.2,544.6 Z M568.8,574.1 L568.9,575.5 L566.7,575.5 L566.1,574.4 L568.2,573.6 L568.8,574.1 Z" fill="#e7e5e4" stroke="#ffffff" stroke-width="0.8"/>
<path d="M554.3,288.0 L550.5,287.1 L547.4,284.2 L550.1,284.4 L554.1,287.6 L554.3,288.0 Z M558.3,308.0 L555.3,307.2 L554.7,305.5 L558.6,307.1 L558.3,308.0 Z M527.3,364.7 L525.8,364.9 L525.9,362.9 L526.9,362.2 L527.4,364.4 L527.3,364.7 Z M410.8,409.2 L412.4,409.6 L412.0,411.0 L409.4,410.2 L409.8,409.3 L410.8,409.2 Z M450.9,392.2 L449.4,391.3 L450.5,391.6 L450.9,392.2 Z M440.2,406.6 L439.4,405.2 L440.3,404.4 L441.3,404.7 L440.5,405.4 L440.2,406.6 Z M382.7,399.3 L380.5,397.0 L375.6,396.8 L371.7,391.9 L368.1,390.6 L367.8,383.6 L371.1,380.5 L368.5,378.4 L365.4,378.4 L364.1,376.7 L360.4,376.6 L357.3,374.0 L354.7,369.9 L349.5,371.6 L348.2,374.4 L346.8,375.3 L342.8,376.0 L340.4,374.2 L337.5,377.1 L334.3,373.2 L332.4,375.3 L330.6,372.6 L326.2,375.8 L320.9,370.6 L316.1,374.5 L315.0,373.5 L312.8,373.6 L311.5,372.0 L308.8,374.5 L310.3,380.6 L308.9,387.1 L309.6,388.3 L308.6,389.1 L306.6,387.6 L303.1,387.3 L302.5,379.7 L296.3,382.0 L291.0,380.6 L290.8,378.1 L289.3,376.4 L289.7,372.9 L281.5,369.1 L284.3,365.2 L285.7,361.1 L287.5,359.7 L286.8,358.1 L280.8,354.9 L281.6,349.2 L280.7,345.1 L283.1,342.8 L276.0,341.1 L268.2,341.6 L270.7,338.0 L269.5,334.1 L269.9,332.3 L271.0,330.6 L273.0,329.9 L273.2,327.7 L275.0,325.3 L277.3,325.3 L279.6,322.2 L281.7,322.5 L283.8,320.4 L286.1,320.0 L285.7,317.0 L287.4,315.9 L289.5,309.5 L291.2,298.1 L289.4,296.4 L287.3,297.3 L287.1,289.1 L283.5,283.2 L282.2,282.7 L278.9,285.8 L276.8,283.1 L273.6,282.1 L272.0,280.4 L269.5,280.9 L268.5,280.0 L272.8,276.4 L272.3,272.3 L268.7,273.0 L269.1,270.9 L272.1,269.5 L270.8,269.2 L269.4,266.0 L263.1,267.3 L261.2,269.1 L255.1,265.2 L254.1,263.0 L242.9,267.4 L237.2,266.9 L234.9,269.3 L228.9,271.5 L228.4,273.4 L220.4,273.6 L216.9,272.0 L217.6,269.9 L214.3,266.6 L211.3,267.0 L208.5,264.5 L204.8,263.0 L205.4,260.9 L200.9,258.5 L195.7,259.8 L186.4,266.9 L185.6,264.9 L188.3,259.7 L188.1,257.2 L186.5,255.7 L181.4,255.8 L180.7,256.6 L172.1,253.8 L167.2,247.8 L165.8,247.3 L164.9,248.7 L163.6,248.7 L161.7,245.2 L159.3,247.1 L157.8,241.1 L152.4,238.2 L154.1,234.8 L150.3,233.6 L146.3,226.6 L146.6,222.2 L145.2,220.7 L141.3,220.3 L139.3,212.9 L136.7,210.6 L132.5,202.9 L132.2,198.7 L128.7,196.1 L126.3,195.6 L123.4,197.9 L121.8,197.9 L121.6,194.7 L119.7,191.1 L115.9,186.7 L116.8,183.8 L111.2,176.6 L110.5,171.0 L106.7,170.4 L107.4,168.2 L109.0,166.8 L108.7,164.7 L110.3,162.2 L109.7,157.8 L110.5,153.5 L113.8,154.2 L114.3,158.2 L117.9,158.0 L121.1,149.3 L120.0,143.6 L122.5,136.9 L126.4,134.6 L125.0,130.5 L122.5,126.9 L123.8,118.2 L125.5,115.6 L117.8,109.9 L115.1,105.4 L115.4,103.1 L111.8,102.1 L112.0,99.4 L111.1,97.8 L113.9,94.1 L114.5,90.2 L113.7,88.2 L111.7,87.0 L112.2,84.5 L106.4,78.9 L105.9,76.7 L109.8,76.7 L110.7,78.3 L113.6,77.6 L113.3,73.9 L114.8,72.1 L116.4,66.2 L118.4,64.0 L118.4,62.3 L115.8,58.1 L114.7,57.3 L113.0,58.2 L111.7,56.2 L112.6,52.7 L114.3,51.9 L114.7,47.8 L116.5,45.4 L119.5,45.3 L120.6,42.3 L123.6,40.3 L132.1,41.3 L133.2,39.5 L135.2,41.3 L139.8,41.5 L138.5,45.9 L143.9,47.4 L143.8,48.6 L145.8,48.3 L149.5,45.3 L153.1,43.6 L158.2,47.3 L163.0,48.9 L166.9,46.5 L171.2,46.1 L181.5,46.8 L182.8,46.0 L186.2,47.3 L189.8,39.6 L191.4,38.4 L194.1,38.8 L193.6,36.9 L194.1,36.1 L198.0,36.5 L201.0,23.5 L204.1,18.1 L206.2,16.8 L202.8,12.1 L205.1,11.5 L219.7,14.5 L220.3,17.8 L223.1,18.5 L224.5,20.7 L227.1,17.5 L225.6,15.2 L226.0,14.2 L242.0,-1.6 L247.9,4.9 L252.8,7.4 L252.8,9.6 L257.5,8.9 L259.6,9.5 L262.1,7.9 L265.3,-0.5 L269.1,-4.5 L270.7,-5.2 L276.8,-3.9 L279.1,-5.3 L281.3,-8.9 L282.8,-9.4 L286.7,-7.3 L290.1,-6.9 L289.5,-4.8 L287.9,-3.9 L289.1,-0.7 L287.6,0.9 L290.6,4.8 L290.1,7.0 L292.4,11.2 L295.8,12.4 L296.9,15.8 L299.2,16.0 L299.0,17.9 L300.2,19.4 L299.4,24.8 L299.6,28.9 L300.5,30.0 L299.6,35.3 L297.1,38.5 L296.5,41.6 L292.5,44.4 L291.0,46.7 L291.0,51.5 L296.1,55.3 L311.4,63.2 L318.6,74.2 L321.0,76.4 L323.7,77.1 L322.3,79.9 L323.7,81.6 L323.5,91.0 L325.7,96.7 L325.6,99.5 L333.1,101.0 L352.4,110.1 L357.4,110.0 L370.5,115.6 L375.2,122.0 L383.1,126.1 L388.1,130.8 L395.8,130.9 L395.1,133.7 L399.4,135.6 L401.9,134.2 L418.1,130.4 L431.6,131.0 L442.5,133.2 L453.2,130.6 L460.1,124.3 L465.5,123.1 L469.5,120.9 L469.1,117.9 L466.1,111.8 L469.2,106.2 L472.2,103.6 L476.8,104.4 L479.1,107.0 L486.8,109.9 L491.7,107.6 L496.9,102.8 L507.1,103.1 L512.2,100.1 L512.6,98.2 L516.3,93.4 L519.1,92.4 L523.3,93.1 L524.6,90.4 L527.2,91.5 L530.3,89.8 L536.1,90.0 L537.3,89.2 L541.4,91.4 L546.3,91.0 L546.7,88.7 L545.4,84.8 L541.0,79.6 L540.4,77.9 L537.7,76.4 L535.7,73.3 L529.4,72.7 L525.3,76.6 L520.5,73.3 L515.9,73.0 L512.7,74.8 L510.6,72.2 L510.3,68.8 L512.7,67.6 L513.6,63.4 L515.7,61.0 L522.9,48.3 L527.3,51.3 L532.5,53.3 L537.8,49.5 L544.8,47.2 L545.8,44.5 L544.4,42.8 L553.2,28.1 L557.0,25.2 L559.2,22.1 L558.9,16.1 L555.1,15.4 L554.2,13.8 L562.2,7.1 L572.9,5.1 L582.9,4.7 L592.1,10.2 L594.2,9.4 L598.7,11.5 L599.3,13.4 L601.8,15.4 L601.6,17.0 L604.2,20.2 L605.5,25.8 L607.9,31.1 L608.9,36.3 L612.1,41.3 L612.4,45.9 L614.5,47.7 L613.8,50.7 L614.3,52.9 L618.1,55.8 L624.1,55.3 L625.1,57.0 L627.2,58.1 L630.9,57.8 L637.1,64.0 L640.2,64.3 L640.8,65.4 L640.4,67.6 L642.7,70.8 L642.3,75.0 L644.9,79.1 L657.8,78.1 L659.5,75.0 L663.2,72.7 L666.0,72.6 L672.8,68.5 L676.2,69.7 L675.6,72.8 L677.6,76.5 L676.1,79.7 L673.0,82.3 L673.5,84.5 L671.3,92.8 L671.5,96.0 L668.8,101.0 L668.4,104.6 L666.3,106.1 L666.0,110.9 L664.5,112.3 L654.3,109.1 L650.9,113.7 L646.7,115.7 L649.8,125.5 L649.3,130.3 L650.3,134.4 L648.8,140.6 L642.8,143.2 L644.3,144.5 L643.9,145.6 L641.1,143.0 L641.0,141.1 L637.7,139.9 L636.0,147.0 L632.4,147.6 L631.3,150.1 L628.8,152.5 L620.3,153.4 L620.2,154.5 L622.8,158.2 L621.5,161.1 L612.0,159.3 L609.8,156.3 L607.6,157.0 L606.4,157.9 L605.3,161.6 L600.4,167.4 L597.9,167.9 L594.8,170.6 L589.5,173.1 L584.5,177.6 L583.2,179.9 L581.6,180.9 L577.1,180.3 L576.4,181.5 L568.9,183.6 L563.7,186.4 L560.0,190.3 L556.9,190.8 L556.6,192.6 L551.6,194.1 L551.1,191.6 L557.0,189.5 L556.6,188.0 L558.6,186.0 L553.2,185.7 L553.2,183.6 L555.8,182.5 L555.9,179.9 L558.8,178.7 L563.7,171.8 L562.6,169.3 L559.9,167.2 L559.8,165.5 L558.7,167.1 L553.3,166.1 L549.1,169.9 L545.9,174.3 L536.9,178.0 L534.7,179.8 L532.7,184.1 L530.0,186.8 L526.5,186.6 L523.1,187.8 L520.7,185.5 L518.1,186.5 L515.2,192.0 L515.9,195.5 L519.2,198.9 L524.5,200.5 L527.1,200.3 L528.5,201.5 L529.6,206.0 L528.6,206.7 L527.9,210.7 L531.1,213.5 L536.0,213.6 L537.4,212.4 L537.4,211.1 L542.0,207.9 L541.5,207.1 L546.7,205.4 L555.5,210.8 L558.8,211.1 L559.8,210.1 L562.6,211.8 L566.0,212.0 L565.0,213.0 L565.1,214.8 L563.6,216.2 L564.3,217.8 L562.4,219.2 L560.6,217.5 L558.2,217.4 L548.9,221.4 L546.4,221.0 L547.1,223.5 L545.2,223.8 L544.2,227.4 L541.6,228.2 L541.1,225.9 L539.5,226.2 L538.5,227.2 L540.4,229.0 L530.9,237.3 L527.7,242.9 L527.9,244.3 L529.5,244.4 L538.9,251.1 L540.9,259.5 L544.4,267.8 L544.0,272.4 L549.1,275.7 L550.1,279.3 L554.2,282.7 L554.4,285.3 L553.3,285.3 L548.9,283.0 L544.7,282.7 L542.9,280.5 L539.9,279.3 L534.5,281.2 L536.2,281.7 L539.6,280.4 L542.0,281.0 L542.7,283.2 L552.0,290.1 L553.7,293.6 L554.1,295.5 L549.0,296.9 L544.1,299.6 L542.9,301.7 L537.9,301.5 L535.0,303.2 L538.4,302.6 L539.8,304.9 L546.9,303.1 L551.4,307.5 L555.9,309.1 L549.2,313.8 L553.5,312.1 L554.4,313.9 L553.6,318.5 L551.4,316.8 L549.3,317.0 L548.3,318.3 L550.8,320.7 L549.2,320.9 L550.6,322.0 L548.3,324.7 L549.7,329.2 L548.6,328.8 L545.8,330.0 L545.2,328.3 L544.4,328.5 L542.1,332.2 L539.7,332.4 L540.6,334.0 L537.6,337.8 L537.7,340.0 L533.7,343.9 L530.7,349.7 L528.8,349.9 L528.3,346.8 L526.9,348.2 L525.5,347.4 L528.6,353.4 L523.5,356.7 L519.8,355.6 L521.9,358.0 L525.3,357.5 L524.1,362.8 L524.9,365.4 L519.8,364.3 L519.6,365.5 L520.8,367.2 L517.2,367.3 L516.2,370.8 L512.9,371.8 L513.8,373.0 L513.0,374.6 L508.7,374.9 L506.3,374.0 L505.2,375.8 L503.3,375.7 L503.7,376.8 L505.4,377.1 L505.6,378.9 L502.9,381.7 L501.7,381.6 L500.2,383.8 L498.3,383.5 L496.9,386.7 L496.1,385.0 L493.5,386.5 L491.5,385.5 L490.8,387.9 L487.9,389.0 L488.7,390.0 L486.7,391.1 L485.6,394.0 L483.1,393.3 L478.1,395.2 L475.7,394.3 L473.8,395.9 L470.4,394.2 L466.1,396.4 L464.8,396.1 L463.8,394.3 L462.4,397.1 L459.9,396.0 L456.0,396.6 L453.9,395.1 L451.7,391.6 L452.1,388.2 L450.8,388.3 L449.7,390.3 L448.4,390.5 L450.6,394.9 L450.1,399.7 L445.1,401.0 L444.6,399.2 L442.6,402.9 L440.9,402.2 L438.0,404.0 L435.6,401.1 L435.7,403.4 L434.6,404.0 L430.5,402.1 L429.4,403.7 L428.3,403.5 L426.0,405.3 L418.9,404.9 L418.6,405.9 L415.8,406.1 L413.1,408.0 L411.8,407.6 L411.4,406.1 L410.7,408.2 L407.8,410.7 L407.9,411.9 L410.1,412.5 L409.3,414.5 L411.4,416.8 L409.1,419.4 L406.4,419.4 L403.6,417.7 L404.8,416.8 L403.6,415.7 L401.8,410.2 L402.4,407.5 L403.9,405.0 L405.7,404.8 L405.9,403.4 L403.1,402.4 L401.9,400.1 L401.4,402.0 L396.5,402.7 L395.8,402.4 L396.3,400.5 L392.4,399.3 L390.8,397.2 L390.8,395.5 L389.4,395.3 L389.2,398.8 L387.2,397.7 L386.1,399.2 L383.9,399.3 L382.7,399.3 Z M415.2,424.2 L416.2,428.8 L413.8,429.7 L411.2,432.8 L408.1,439.4 L402.9,441.8 L402.4,442.9 L399.9,442.8 L398.3,444.4 L396.0,444.5 L386.5,438.9 L387.3,429.0 L395.4,424.3 L394.2,424.0 L396.1,422.5 L406.6,422.2 L411.5,423.9 L412.5,421.9 L414.3,423.8 L415.2,424.2 Z" fill="#e7e5e4" stroke="#ffffff" stroke-width="0.8"/>
<path d="M539.6,402.0 L538.1,405.1 L537.2,410.9 L536.0,410.4 L534.3,405.2 L531.2,402.5 L528.7,394.6 L530.1,387.5 L541.3,371.0 L547.9,368.2 L551.7,372.2 L550.3,374.1 L550.3,377.8 L547.5,383.9 L544.5,395.2 L541.5,400.1 L539.6,402.0 Z M510.0,375.6 L510.2,377.1 L508.6,376.6 L509.1,376.3 L510.0,375.6 Z" fill="#e7e5e4" stroke="#ffffff" stroke-width="0.8"/>
<path d="M677.1,225.8 L675.2,225.5 L676.2,224.1 L677.1,225.2 L677.1,225.8 Z M726.1,200.1 L724.9,200.2 L725.6,198.2 L724.7,196.9 L726.9,193.6 L726.8,196.7 L728.0,196.7 L727.5,198.9 L726.1,200.1 Z M695.4,249.3 L694.3,250.5 L692.6,249.4 L695.4,245.9 L695.0,247.9 L695.4,249.3 Z M651.5,304.1 L649.5,304.2 L648.8,302.6 L650.0,301.6 L652.0,302.8 L651.5,304.1 Z M655.2,302.3 L654.2,302.4 L654.2,301.7 L655.8,296.8 L655.5,300.5 L655.2,302.3 Z M644.6,278.9 L643.3,278.8 L643.7,275.2 L645.4,274.9 L645.8,277.5 L644.6,278.9 Z M635.2,254.7 L634.5,255.3 L634.2,254.5 L634.4,252.2 L635.7,253.3 L635.2,254.7 Z M636.2,251.7 L636.0,252.3 L635.0,251.5 L635.5,248.4 L636.8,247.4 L637.1,249.3 L636.2,250.9 L636.2,251.7 Z M629.0,272.2 L630.9,272.4 L631.5,273.9 L629.9,274.7 L628.8,273.8 L629.0,272.2 Z M647.8,276.3 L646.2,275.9 L647.6,275.0 L648.6,275.1 L648.2,275.9 L647.8,276.3 Z M737.8,100.2 L737.6,101.1 L736.6,98.6 L737.6,99.3 L737.8,100.2 Z M740.3,102.6 L738.6,101.7 L739.6,101.2 L740.5,102.2 L740.3,102.6 Z M729.8,143.9 L729.1,142.5 L730.2,141.9 L730.0,143.7 L729.8,143.9 Z M689.0,247.2 L688.0,248.1 L687.2,246.9 L689.2,246.7 L689.0,247.2 Z M633.4,271.4 L632.5,269.9 L633.7,267.6 L634.5,269.4 L633.8,270.2 L633.4,271.4 Z M637.8,266.3 L636.5,266.9 L637.4,264.9 L638.6,264.5 L637.9,265.5 L637.8,266.3 Z M640.9,259.4 L639.6,259.6 L640.0,258.0 L640.6,258.4 L640.9,259.4 Z M667.2,255.7 L669.2,256.0 L668.3,256.9 L666.7,256.7 L666.6,255.7 L667.2,255.7 Z M765.6,111.5 L774.2,112.3 L779.0,106.1 L778.1,112.4 L778.8,115.0 L781.6,119.2 L785.9,117.2 L783.5,120.5 L778.6,123.8 L772.0,125.4 L770.1,127.0 L766.3,133.8 L765.5,139.5 L751.1,134.3 L747.0,135.3 L743.5,138.6 L740.5,136.2 L738.3,136.5 L737.3,138.2 L737.4,140.1 L739.6,141.9 L741.6,141.8 L746.2,145.2 L744.9,146.3 L741.5,145.8 L739.5,149.9 L736.8,151.4 L735.7,149.7 L736.1,145.3 L735.3,143.4 L732.8,141.0 L732.4,137.0 L737.0,131.5 L737.3,130.2 L735.9,127.1 L743.1,127.6 L745.1,126.0 L744.5,121.3 L745.9,116.1 L745.9,110.1 L745.6,107.0 L742.8,101.7 L743.0,98.5 L745.6,97.0 L755.7,106.0 L765.0,111.4 L765.6,111.5 Z M655.8,260.7 L661.4,260.4 L661.6,261.7 L659.9,264.8 L663.8,264.8 L663.3,266.6 L665.2,269.6 L661.7,275.2 L658.8,289.0 L655.9,288.8 L656.3,291.1 L651.8,294.4 L652.8,291.1 L651.7,287.1 L652.7,285.9 L651.1,285.3 L649.9,288.7 L651.2,291.2 L650.7,292.3 L646.3,291.0 L645.7,289.5 L647.3,288.9 L647.5,287.0 L646.0,284.9 L645.9,280.7 L648.0,279.0 L650.5,273.7 L648.9,273.2 L649.4,271.0 L647.5,267.7 L645.9,266.6 L644.7,267.6 L645.3,270.9 L647.0,270.8 L647.2,272.7 L644.1,272.0 L641.0,274.6 L641.6,272.6 L640.1,270.7 L639.9,268.3 L641.6,270.5 L643.4,270.9 L642.3,268.8 L638.7,266.1 L639.0,264.7 L641.6,264.9 L641.3,263.4 L647.0,260.7 L648.2,258.0 L650.6,256.7 L653.2,257.3 L654.5,259.9 L655.8,260.7 Z M689.3,250.2 L692.3,250.3 L693.1,255.2 L693.8,255.5 L690.2,258.5 L688.4,263.4 L685.8,260.9 L682.3,260.4 L678.7,262.6 L674.7,270.7 L672.2,270.7 L672.8,268.9 L670.5,268.8 L669.6,267.0 L670.4,264.0 L669.2,263.5 L669.2,262.3 L665.2,263.6 L671.5,258.8 L672.8,254.7 L674.3,253.3 L676.5,255.4 L680.1,254.5 L681.7,253.2 L681.3,250.9 L684.9,249.3 L687.8,249.5 L689.3,250.2 Z M747.9,150.6 L750.0,149.9 L751.2,158.6 L755.6,163.6 L758.6,169.7 L759.3,174.4 L759.2,178.6 L757.1,180.7 L756.4,183.6 L756.4,188.4 L752.9,189.7 L751.8,192.4 L754.3,205.6 L752.2,211.0 L751.6,217.6 L755.6,223.7 L753.3,224.9 L751.7,227.1 L751.2,231.5 L746.3,235.6 L745.5,230.7 L747.8,226.6 L746.5,225.7 L745.0,226.1 L743.5,229.5 L744.7,231.4 L744.2,232.8 L741.8,231.2 L739.5,231.7 L738.5,233.5 L738.5,237.6 L736.3,240.8 L735.3,239.8 L735.3,236.2 L736.3,235.4 L734.2,234.4 L732.8,235.1 L729.5,241.9 L722.6,241.8 L717.6,243.4 L719.8,241.5 L719.6,240.7 L717.0,241.0 L716.2,240.2 L716.2,241.7 L715.4,241.6 L715.3,237.7 L714.3,237.6 L713.1,238.6 L711.9,242.7 L715.9,245.5 L715.7,246.9 L710.4,249.4 L706.7,257.7 L704.4,258.9 L701.7,258.3 L697.8,252.7 L697.2,249.1 L699.2,247.3 L700.2,244.6 L696.2,244.7 L692.8,243.3 L687.7,244.4 L684.9,247.0 L676.3,250.5 L671.2,251.6 L668.6,250.3 L667.5,250.7 L666.0,257.1 L661.5,254.6 L656.2,256.2 L654.4,255.4 L652.8,256.0 L652.3,252.3 L653.5,250.6 L657.2,250.1 L666.4,241.8 L670.7,236.4 L673.0,235.0 L676.6,234.2 L677.8,235.4 L684.1,234.3 L696.3,230.2 L697.3,230.5 L697.1,232.2 L698.2,232.9 L701.9,232.9 L704.1,231.3 L705.9,229.1 L704.7,226.3 L705.2,224.6 L710.9,215.9 L710.5,210.0 L711.5,207.5 L716.2,205.2 L716.5,206.2 L712.4,210.8 L713.5,211.9 L714.0,214.3 L716.5,215.2 L719.0,212.3 L726.8,207.9 L729.6,204.3 L731.5,199.2 L735.9,195.3 L736.8,189.9 L738.9,184.6 L740.1,174.7 L739.0,171.8 L736.4,171.3 L737.8,169.8 L738.3,166.6 L737.0,163.2 L737.1,161.4 L739.8,158.7 L739.5,154.6 L740.1,153.7 L742.5,153.8 L744.4,158.3 L745.4,156.8 L748.4,156.4 L748.7,154.0 L747.9,152.3 L744.2,154.2 L744.4,149.7 L746.5,149.7 L747.9,150.6 Z M579.4,379.0 L578.0,381.3 L576.9,380.0 L579.7,378.4 L579.4,379.0 Z M574.5,381.9 L572.1,381.4 L573.2,380.2 L575.0,381.4 L574.5,381.9 Z M593.0,376.3 L590.9,376.4 L591.1,374.6 L592.5,375.8 L593.0,376.3 Z M625.8,351.5 L621.3,354.3 L621.7,355.8 L620.4,356.7 L620.6,358.1 L618.8,358.8 L619.7,354.4 L622.2,352.3 L621.7,351.1 L623.9,351.4 L625.7,348.6 L626.4,350.6 L625.8,351.5 Z M634.1,337.6 L632.9,337.5 L632.7,336.0 L633.5,335.1 L634.3,336.9 L634.1,337.6 Z M639.1,331.1 L638.2,332.2 L635.8,330.7 L641.7,327.1 L642.0,327.7 L638.9,330.5 L639.1,331.1 Z" fill="#e7e5e4" stroke="#ffffff" stroke-width="0.8"/>
<path d="M624.4,196.7 L622.4,200.2 L621.1,200.9 L611.4,201.3 L607.1,206.1 L606.8,207.8 L604.1,206.6 L601.5,208.3 L600.8,206.7 L598.0,205.1 L593.7,208.5 L593.3,206.9 L590.0,205.8 L592.2,203.8 L587.0,203.1 L588.9,201.8 L589.0,200.4 L590.9,197.7 L595.9,196.1 L592.0,194.5 L594.5,188.3 L594.0,185.2 L588.2,182.1 L586.8,183.9 L586.1,181.7 L584.0,180.1 L584.5,177.6 L589.5,173.1 L594.8,170.6 L597.9,167.9 L600.4,167.4 L605.3,161.6 L606.4,157.9 L609.3,156.1 L612.0,159.3 L621.5,161.1 L622.8,158.2 L620.2,154.5 L620.3,153.4 L628.8,152.5 L631.3,150.1 L632.4,147.6 L636.0,147.0 L637.7,139.9 L641.0,141.1 L641.1,143.0 L643.9,145.6 L645.6,148.5 L643.4,148.6 L641.3,150.3 L636.3,158.0 L637.2,161.8 L636.9,167.5 L633.3,169.4 L631.1,172.5 L627.2,174.8 L625.3,177.3 L620.0,179.1 L616.1,181.9 L615.9,186.0 L615.7,187.1 L614.7,187.2 L614.4,189.3 L618.3,190.9 L623.9,196.0 L624.4,196.7 Z" fill="#e7e5e4" stroke="#ffffff" stroke-width="0.8"/>
<path d="M606.8,207.8 L607.1,206.1 L611.4,201.3 L621.1,200.9 L622.4,200.2 L624.4,196.7 L627.0,202.5 L634.6,214.0 L635.6,216.7 L636.2,220.8 L635.8,229.7 L637.6,229.7 L636.2,236.9 L634.1,241.0 L632.7,241.8 L626.7,242.3 L625.7,243.4 L626.1,245.3 L622.3,244.5 L621.7,243.4 L618.3,244.3 L617.5,245.1 L618.3,247.3 L617.5,247.7 L616.3,245.8 L615.0,246.0 L615.8,248.6 L614.2,250.7 L612.6,249.6 L613.4,246.9 L609.7,251.0 L608.1,250.1 L605.8,252.7 L605.2,250.3 L602.9,248.0 L605.7,247.7 L605.1,246.9 L606.4,246.1 L604.6,246.1 L603.2,241.8 L605.3,237.3 L606.6,236.4 L605.3,235.4 L607.7,233.8 L608.1,232.5 L607.0,231.8 L607.4,230.7 L605.8,228.7 L605.3,221.9 L602.1,221.9 L601.9,220.9 L605.3,217.8 L608.4,218.6 L609.3,220.2 L610.4,218.7 L609.2,218.2 L608.0,215.4 L608.4,214.1 L607.0,212.1 L606.1,208.6 L606.7,208.1 L606.8,207.8 Z M629.2,246.1 L628.2,246.9 L626.5,245.3 L629.0,243.3 L629.2,246.1 Z M622.1,246.2 L622.0,247.4 L621.2,247.5 L619.6,246.1 L620.4,244.7 L621.7,245.2 L622.1,246.2 Z M602.6,251.9 L601.2,251.6 L602.7,249.4 L604.1,250.3 L603.7,251.2 L602.6,251.9 Z M605.6,208.4 L605.6,210.1 L604.5,209.5 L604.1,207.9 L605.4,207.8 L605.6,208.4 Z M604.6,224.5 L604.4,225.3 L603.7,224.8 L603.5,222.9 L604.2,223.5 L604.6,224.5 Z M601.9,247.3 L600.2,245.5 L600.9,244.9 L601.9,246.0 L601.9,247.3 Z M603.5,266.8 L602.5,266.7 L602.2,264.9 L608.2,262.5 L609.7,263.0 L609.8,264.7 L606.3,266.6 L603.5,266.8 Z" fill="#ef4444" stroke="#ffffff" stroke-width="0.8"/>
<text x="721" y="101" text-anchor="middle" font-size="12" font-weight="500" fill="#475569">러시아</text>
<text x="482" y="101" text-anchor="middle" font-size="12" font-weight="500" fill="#475569">몽골</text>
<text x="358" y="379" text-anchor="middle" font-size="12" font-weight="500" fill="#475569">베트남</text>
<text x="531" y="237" text-anchor="middle" font-size="12" font-weight="500" fill="#475569">중국</text>
<text x="531" y="379" text-anchor="middle" font-size="12" font-weight="500" fill="#475569">대만</text>
<text x="687" y="237" text-anchor="middle" font-size="12" font-weight="500" fill="#475569">일본</text>
<text x="613" y="178" text-anchor="middle" font-size="12" font-weight="500" fill="#475569">북한</text>
<text x="612" y="235" text-anchor="middle" font-size="12" font-weight="700" fill="#7f1d1d">한국</text>
</g>
<path d="M530.2,127.6 L558.1,120.3 L558.3,117.6 L558.7,116.3 L559.9,116.3 L560.5,116.1 L560.9,115.4 L561.4,114.9 L562.8,115.4 L562.8,113.5 L563.7,112.9 L563.1,111.4 L565.2,106.0 L564.2,101.5 L564.4,100.2 L565.0,98.7 L564.7,97.0 L564.4,95.2 L567.6,83.8 L568.5,83.8 L569.3,83.8 L569.6,84.9 L570.0,85.7 L570.5,86.0 L571.2,86.2 L576.4,82.6 L581.0,84.7 L587.0,101.6 L590.7,102.1 L591.8,106.2 L593.6,107.3 L595.2,106.6 L596.6,110.1 L597.9,110.4 L596.8,112.9 L591.7,116.0 L590.6,119.0 L589.3,117.8 L587.6,119.1 L587.1,118.9 L586.7,118.5 L587.0,121.9 L584.3,121.6 L584.2,121.1 L584.7,120.1 L583.9,120.2 L584.0,119.4 L583.7,118.6 L582.6,120.9 L582.6,126.3 L579.9,129.1 L579.4,128.3 L579.2,128.1 L579.3,129.4 L579.0,129.6 L578.6,128.8 L578.3,128.2 L578.1,128.8 L578.2,130.2 L577.4,129.7 L577.8,131.4 L575.3,131.3 L574.6,132.5 L574.1,133.9 L574.5,134.0 L574.9,134.3 L574.1,136.5 L573.2,138.6 L572.4,146.0 L573.8,147.7 L575.1,148.0 L573.4,149.4 L572.2,152.8 L575.4,153.3 L577.2,155.3 L577.0,155.6 L577.0,156.1 L580.0,158.4 L583.6,156.4 L581.8,154.1 L580.5,153.9 L581.7,153.5 L583.3,154.6 L584.6,158.1 L578.7,161.8 L577.6,159.6 L574.2,163.7 L573.4,160.4 L573.2,160.5 L572.5,161.5 L571.0,160.4 L571.6,161.5 L571.3,166.0 L558.6,170.6 L553.4,175.5 L550.4,179.9 L550.5,175.8 L549.0,173.5 L550.5,177.7 L548.5,183.4 L548.9,184.2 L551.7,184.3 L552.6,192.4 L551.8,190.0 L551.4,195.0 L550.9,196.1 L550.2,196.2 L550.4,198.3 L549.0,199.9 L548.1,204.0 L547.0,205.1 L546.7,205.0 L546.7,203.7 L546.6,202.4 L544.1,202.1 L539.6,199.4 L539.7,195.3 L540.2,194.7 L542.0,193.7 L542.3,192.8 L542.5,192.1 L539.8,194.8 L538.5,197.6 L542.0,204.2 L545.9,207.5 L545.4,210.1 L546.2,209.8 L546.6,210.0 L547.2,210.9 L547.4,211.9 L545.3,217.2 L544.1,223.2 L544.4,224.2 L542.6,226.3 L542.5,228.1 L542.1,230.1 L541.0,227.0 L542.6,219.3 L541.8,219.2 L540.7,219.5 L540.7,218.6 L540.9,217.9 L539.4,217.1 L539.5,214.5 L537.9,216.0 L535.3,214.4 L534.9,213.7 L534.9,212.3 L537.2,211.5 L535.0,210.2 L533.8,211.1 L533.9,209.6 L534.4,209.4 L535.1,208.9 L534.7,208.1 L534.2,207.9 L533.4,208.5 L533.3,207.9 L533.3,207.2 L533.9,207.0 L534.6,207.2 L534.8,205.9 L534.7,205.4 L534.1,206.3 L533.5,204.7 L534.0,203.0 L534.6,202.1 L535.6,201.9 L536.5,201.6 L535.8,201.4 L535.2,201.4 L536.2,199.9 L534.2,199.6 L534.2,201.3 L533.9,201.8 L533.2,202.3 L533.0,201.8 L532.7,201.6 L532.9,202.7 L532.8,203.1 L532.0,202.2 L531.6,204.7 L530.1,204.4 L531.9,205.9 L532.1,206.6 L531.7,207.2 L530.9,206.9 L530.7,207.0 L531.3,207.7 L531.7,208.4 L532.7,213.7 L534.2,215.5 L532.3,215.0 L530.8,213.0 L531.1,213.9 L531.6,215.0 L534.4,216.8 L535.5,219.0 L530.8,217.7 L529.5,216.2 L529.7,216.9 L529.6,217.5 L528.1,215.8 L525.9,216.7 L525.6,215.7 L525.7,215.0 L527.0,211.6 L526.6,210.2 L526.8,211.7 L525.1,214.3 L525.6,217.5 L527.8,217.0 L529.6,218.8 L532.4,219.1 L533.4,219.4 L536.8,221.3 L536.6,224.3 L535.7,224.5 L535.1,224.5 L529.6,220.2 L528.1,219.5 L527.7,219.6 L534.6,224.8 L535.3,225.2 L537.3,225.5 L536.8,226.2 L537.8,226.4 L538.1,227.2 L538.3,228.2 L536.8,228.1 L536.6,229.7 L535.6,229.4 L532.9,227.3 L538.2,231.0 L538.5,231.4 L538.9,232.1 L538.4,232.7 L537.8,233.1 L534.9,230.7 L528.5,230.6 L534.7,231.4 L537.2,234.5 L542.1,233.3 L549.7,246.3 L543.3,236.4 L543.3,238.9 L546.0,243.1 L542.3,241.7 L542.5,242.5 L542.6,243.4 L541.8,243.3 L541.3,243.1 L541.9,244.0 L540.9,243.9 L540.3,244.1 L538.8,246.0 L537.4,245.4 L536.8,244.6 L536.5,243.6 L537.2,247.1 L543.9,245.5 L544.5,249.1 L544.9,249.0 L545.2,248.5 L545.0,246.2 L546.1,245.2 L547.4,246.4 L547.7,247.4 L547.7,249.0 L544.4,253.6 L541.1,253.7 L539.9,252.2 L538.4,253.8 L536.9,253.7 L535.1,253.2 L541.2,255.4 L540.5,258.2 L539.1,259.5 L538.3,259.5 L535.7,258.0 L537.0,259.5 L538.0,260.0 L539.6,260.1 L542.5,258.9 L543.6,259.3 L543.0,260.7 L540.3,263.1 L536.2,263.9 L535.2,265.3 L534.8,265.6 L533.2,264.2 L534.1,266.7 L530.8,270.6 L529.7,275.3 L528.9,272.5 L529.2,274.7 L528.9,275.9 L524.8,276.6 L523.1,277.5 L520.6,279.9 L519.9,280.9 L518.2,284.5 L517.9,286.7 L517.3,284.7 L517.3,288.3 L514.3,290.5 L512.4,293.7 L511.0,293.6 L511.6,294.6 L511.2,295.5 L507.0,298.3 L504.1,298.7 L505.2,299.0 L505.9,299.5 L505.1,301.5 L502.4,299.8 L504.0,302.6 L502.5,304.2 L502.0,306.4 L500.1,307.6 L500.8,308.7 L499.5,310.0 L500.0,311.2 L499.2,311.7 L499.1,312.2 L500.0,312.2 L498.1,314.8 L499.3,315.8 L497.7,317.8 L497.6,322.1 L502.3,334.6 L504.5,338.7 L507.5,343.6 L512.1,349.4 L512.7,350.2 L512.4,353.1 L514.5,357.6 L513.9,357.3 L512.2,354.3 L511.9,352.5 L511.7,349.9 L511.0,352.3 L510.7,349.3 L508.7,347.3 L510.3,352.0 L521.0,370.9 L521.8,383.6 L521.4,383.0 L519.9,390.4 L518.7,392.0 L511.6,394.2 L511.0,392.1 L513.4,392.3 L511.2,391.3 L507.6,385.7 L505.1,385.3 L503.3,384.4 L501.9,382.4 L500.8,378.8 L500.0,378.5 L499.7,378.3 L500.3,376.8 L500.9,375.5 L498.7,377.6 L498.3,372.3 L497.4,372.4 L496.5,372.9 L496.7,373.7 L496.6,374.1 L495.9,374.1 L495.3,373.9 L489.5,366.5 L492.5,361.3 L489.3,360.4 L490.3,362.7 L488.9,363.8 L487.6,362.2 L488.1,357.0 L488.7,353.7 L488.2,348.5 L486.6,346.6 L480.2,342.2 L475.0,336.7 L470.8,334.8 L467.9,335.7 L467.3,337.8 L457.2,341.9 L456.5,341.8 L456.0,340.9 L455.9,339.9 L457.1,340.9 L457.2,340.4 L456.6,339.4 L454.8,338.3 L452.7,336.6 L453.3,334.4 L451.3,336.1 L443.7,333.9 L446.0,333.3 L447.4,333.5 L445.8,332.5 L435.5,335.5 L437.8,334.1 L437.9,333.1 L437.5,332.3 L437.1,332.5 L436.7,333.2 L436.2,332.8 L435.6,332.9 L434.6,335.5 L432.5,336.3 L432.7,335.0 L432.0,335.4 L430.8,336.8 L426.6,337.6 L429.0,336.6 L426.1,331.6 L425.0,336.0 L416.4,336.0 L411.9,337.2 L410.6,338.9 L409.0,339.7 L402.9,337.4 L401.7,337.4 L400.6,338.8 L399.8,340.6 L401.3,341.5 L402.5,341.9 L407.3,339.7 L408.1,340.0 L408.2,340.4 L406.6,341.9 L407.4,342.9 L408.7,343.1 L410.1,341.0 L411.2,341.1 L411.9,344.0 L407.9,346.8 L410.4,349.3 L413.5,350.2 L414.2,350.1 L416.2,351.7 L414.7,354.2 L414.3,353.8 L413.8,353.4 L412.8,354.6 L412.3,354.8 L411.4,352.1 L407.3,350.6 L406.3,349.0 L403.0,348.2 L404.4,350.7 L402.7,353.8 L400.7,351.5 L399.3,351.5 L398.4,351.9 L397.4,353.5 L396.6,353.8 L393.7,353.1 L390.4,352.1 L392.0,351.6 L390.8,348.5 L387.8,348.7 L387.2,348.1 L385.9,346.3 L384.2,346.4 L383.4,345.3 L380.7,347.2 L381.3,348.5 L379.4,349.1 L374.7,348.7 L369.0,346.5 L361.7,347.4 L361.2,347.0 L361.0,346.3 L362.3,344.4 L362.0,344.1 L361.5,344.1 L360.3,346.2 L361.0,347.4 L361.0,347.9 L358.6,348.1 L353.3,350.6 L351.2,351.9 L351.3,351.5 L353.8,349.8 L351.0,349.8 L351.6,348.4 L351.4,347.2 L348.2,347.9 L349.8,352.1 L345.5,357.4 L334.5,363.6 L335.7,362.6 L337.1,361.7 L333.0,361.4 L332.9,361.7 L332.1,362.2 L329.9,360.7 L331.2,363.5 L331.8,363.7 L332.4,364.0 L329.5,365.4 L328.4,364.4 L327.6,367.3 L324.0,367.9 L324.0,368.4 L324.1,369.0 L325.4,368.6 L324.9,370.0 L323.8,371.3 L320.8,371.8 L322.4,374.0 L321.3,377.2 L320.6,378.4 L316.8,376.7 L317.7,378.9 L320.0,379.5 L319.2,383.0 L320.5,389.2 L323.8,395.2 L323.8,396.0 L321.3,397.2 L316.1,394.9 L312.8,394.5 L310.6,393.9 L301.0,389.3 L299.7,385.2 L297.2,381.3 L296.9,374.9 L288.2,364.5 L287.8,362.2 L283.4,353.2 L276.7,345.6 L266.0,343.4 L261.4,346.0 L259.3,351.4 L255.0,353.8 L242.7,345.4 L241.6,344.0 L240.5,341.6 L240.0,339.8 L240.1,337.9 L238.7,333.7 L238.0,331.9 L225.4,319.4 L222.6,314.9 L203.3,312.5 L202.6,318.3 L171.8,314.0 L133.5,291.5 L134.2,290.9 L135.2,289.1 L109.3,286.0 L109.3,285.9 L109.5,284.5 L109.1,283.9 L108.5,284.1 L108.8,278.3 L107.8,275.5 L102.6,268.5 L99.3,267.4 L99.8,266.0 L99.1,263.7 L92.8,260.9 L92.0,260.0 L92.0,258.7 L90.7,257.3 L89.0,255.8 L80.3,252.8 L79.7,251.6 L79.0,250.9 L80.6,244.0 L80.2,243.4 L78.9,242.4 L79.2,239.5 L76.2,235.2 L72.5,225.3 L72.6,223.9 L73.0,222.1 L74.1,221.3 L74.8,220.4 L75.0,219.6 L75.0,218.9 L74.6,217.6 L72.0,216.1 L70.6,212.7 L71.0,210.6 L70.8,208.2 L71.2,206.8 L71.5,205.2 L72.2,205.1 L72.9,208.1 L74.7,210.2 L73.4,203.2 L74.3,202.8 L82.0,204.4 L77.4,202.2 L76.0,202.5 L74.0,200.9 L73.0,201.1 L72.3,203.0 L72.2,204.5 L71.6,204.5 L68.5,200.4 L67.6,201.1 L68.7,198.1 L69.3,199.7 L69.3,198.7 L64.4,187.4 L66.6,176.1 L64.0,168.7 L64.2,167.1 L64.5,165.5 L67.3,162.6 L71.2,154.3 L71.0,149.7 L71.8,148.5 L72.2,147.3 L71.4,145.2 L72.9,139.3 L73.0,138.1 L72.7,136.0 L76.7,130.0 L78.3,129.4 L78.1,129.1 L77.5,129.3 L79.9,126.2 L89.9,103.3 L92.2,95.2 L98.3,98.1 L96.8,96.0 L91.8,94.2 L93.4,90.2 L93.3,91.4 L93.5,92.7 L94.2,91.5 L95.0,90.0 L94.6,89.2 L93.8,88.4 L94.0,86.9 L96.7,86.4 L94.8,84.7 L94.6,85.1 L94.2,85.6 L95.4,76.3 L94.6,71.6 L96.1,66.4 L101.0,71.1 L107.5,73.4 L108.6,74.9 L110.5,74.6 L110.4,78.1 L108.8,79.6 L108.7,78.8 L104.3,83.0 L106.2,83.3 L105.0,83.0 L105.3,82.4 L105.5,82.1 L111.6,78.0 L111.3,79.3 L111.0,79.9 L109.1,81.4 L109.5,82.7 L109.4,83.6 L109.2,84.3 L108.5,85.6 L107.6,85.0 L107.4,85.1 L106.6,86.1 L106.7,84.4 L104.2,86.4 L106.7,87.6 L110.7,85.2 L112.1,80.0 L114.3,77.6 L113.6,75.0 L113.4,76.3 L112.8,75.5 L112.7,75.0 L114.2,73.6 L112.8,70.8 L114.4,70.8 L114.9,68.7 L115.1,67.5 L115.0,67.2 L114.1,66.7 L114.1,65.9 L114.1,64.0 L344.8,98.7 L344.8,96.0 L344.8,93.8 L347.4,94.6 L347.8,98.5 L349.5,101.9 L357.4,104.5 L360.2,103.3 L363.4,103.2 L367.8,105.3 L368.2,106.2 L368.6,107.4 L372.1,106.9 L376.5,109.8 L381.6,107.6 L383.2,108.9 L388.8,108.4 L390.6,109.8 L394.5,109.5 L403.4,104.9 L435.9,119.7 L436.6,121.4 L437.2,123.0 L438.4,124.1 L439.5,125.0 L443.0,123.5 L444.1,127.5 L444.8,128.4 L445.3,129.1 L448.5,128.3 L450.0,129.7 L449.3,132.1 L459.5,136.8 L466.9,159.0 L465.5,165.7 L465.1,171.7 L460.7,176.6 L460.5,177.2 L460.3,178.7 L460.7,180.8 L462.0,182.5 L463.7,183.3 L465.6,184.1 L467.9,183.7 L477.8,175.2 L487.2,171.6 L497.4,164.0 L498.2,163.0 L498.3,162.4 L497.0,161.2 L494.5,155.7 L495.9,154.6 L497.2,153.7 L515.5,149.3 L519.6,139.5 L526.4,129.9 L530.2,127.6 Z M563.5,173.4 L563.1,174.4 L563.7,174.3 L565.4,172.4 L568.9,171.0 L558.2,179.3 L551.8,182.0 L552.3,180.7 L550.7,182.1 L550.4,181.4 L551.3,179.1 L553.8,176.8 L562.4,173.6 L565.1,170.7 L564.1,172.6 L563.5,173.4 Z M589.7,120.0 L589.3,120.4 L588.7,120.5 L588.9,121.1 L588.9,121.4 L588.2,121.2 L587.9,121.1 L588.2,118.8 L589.7,120.0 Z M549.2,183.3 L548.8,183.4 L549.0,182.1 L549.7,181.3 L550.0,181.4 L549.2,183.3 Z M580.6,163.4 L578.3,164.7 L577.8,164.5 L579.4,162.7 L580.4,163.0 L580.6,163.4 Z M573.5,163.9 L573.1,164.3 L572.6,164.4 L573.0,161.8 L573.5,163.9 Z M585.9,163.4 L585.3,163.8 L583.5,163.8 L584.9,161.9 L585.7,163.0 L585.9,163.4 Z M551.2,253.7 L549.9,254.3 L549.7,254.2 L551.2,253.2 L550.2,246.8 L551.4,250.8 L551.4,253.1 L551.2,253.7 Z M548.9,254.8 L547.2,256.2 L547.0,256.1 L548.1,255.2 L548.9,254.8 Z M542.9,263.4 L545.2,259.0 L544.0,261.0 L542.9,263.4 Z M498.9,378.8 L498.5,379.2 L497.6,379.1 L497.1,378.7 L496.8,377.9 L498.9,378.8 Z M498.2,377.7 L497.0,375.9 L497.6,376.3 L498.2,377.7 Z M520.0,392.9 L518.0,395.7 L520.1,390.9 L520.9,390.2 L521.1,390.0 L520.0,392.9 Z M384.7,349.6 L382.2,348.3 L383.1,347.8 L383.7,347.8 L385.1,348.7 L385.0,349.1 L384.7,349.6 Z M321.6,378.8 L322.3,375.9 L324.2,372.6 L325.0,372.1 L322.8,375.7 L321.6,378.8 Z M348.1,355.0 L351.1,352.5 L350.1,353.6 L348.1,355.0 Z M323.5,393.5 L320.9,384.9 L320.9,381.3 L321.2,380.1 L323.5,393.5 Z M97.3,279.3 L96.7,279.3 L96.0,278.8 L95.7,277.5 L95.3,276.3 L97.3,279.3 Z M83.0,261.0 L82.2,261.0 L81.7,260.7 L81.2,259.2 L83.1,259.5 L83.7,260.3 L83.8,260.4 L83.0,261.0 Z M85.2,259.4 L88.4,260.9 L88.2,261.1 L85.6,261.0 L85.2,259.4 Z M98.9,272.2 L99.2,273.2 L98.5,272.9 L97.7,272.8 L96.8,270.6 L98.9,272.2 Z M112.8,68.0 L111.8,67.8 L111.7,68.5 L111.6,68.7 L111.0,68.0 L110.9,67.7 L112.8,68.0 Z M110.2,69.5 L109.2,69.1 L109.5,67.8 L110.2,69.5 Z M112.3,74.9 L112.1,76.7 L112.5,76.1 L113.2,77.6 L113.0,78.2 L112.8,78.3 L111.7,77.0 L111.2,73.4 L112.8,72.0 L113.3,73.0 L111.6,73.7 L112.3,74.9 Z M513.0,399.5 L514.3,398.8 L513.7,399.3 L513.0,399.5 Z M498.4,319.8 L498.3,323.0 L498.0,321.9 L497.8,320.8 L498.1,320.1 L498.4,319.8 Z M420.5,338.3 L418.6,337.8 L420.3,338.1 L420.5,338.3 Z M413.1,340.5 L411.8,340.9 L413.5,339.4 L413.3,339.9 L413.1,340.5 Z M461.8,341.9 L460.8,342.5 L459.5,342.3 L463.6,340.5 L461.8,341.9 Z M110.5,84.8 L109.4,85.0 L109.7,84.2 L110.1,83.4 L110.5,84.8 Z M110.5,82.1 L109.9,81.6 L110.5,80.6 L110.5,82.1 Z M111.4,70.9 L110.7,70.3 L110.8,69.9 L111.2,69.3 L111.4,70.9 Z" fill="#f97316" fill-opacity="0.4" stroke="#9a3412" stroke-width="1.1"/>
<text x="401" y="233" text-anchor="middle" font-size="13" font-weight="700" fill="#7c2d12">미국</text>
<circle cx="526.5" cy="210.1" r="3.6" fill="#fde047" stroke="#1e293b" stroke-width="1.2"/>
<text x="532.5" y="214.1" font-size="11" font-weight="700" fill="#1e293b">★워싱턴</text>
<text x="470" y="501" text-anchor="middle" font-size="16" font-weight="600" fill="#334155">주황이 미국 — 한국 바로 옆에 두고 비교</text>
</svg>
